<?xml version="1.0" standalone="no"?>
<!DOCTYPE svg PUBLIC "-//W3C//DTD SVG 20010904//EN"
 "http://www.w3.org/TR/2001/REC-SVG-20010904/DTD/svg10.dtd">
<svg version="1.0" xmlns="http://www.w3.org/2000/svg"
 width="500.000000pt" height="500.000000pt" viewBox="0 0 500.000000 500.000000"
 preserveAspectRatio="xMidYMid meet">
<metadata>
Created by potrace 1.11, written by Peter Selinger 2001-2013
</metadata>
<g transform="translate(0.000000,500.000000) scale(0.100000,-0.100000)"
fill="#000000" stroke="none">
<path d="M4037 4064 c-1 -1 -29 -5 -62 -8 -114 -12 -199 -30 -286 -62 -47 -16
-515 -21 -2706 -27 -464 -1 -843 -5 -843 -9 0 -4 21 -40 47 -80 26 -40 46 -76
46 -79 -1 -3 26 -7 60 -8 34 -1 79 -3 100 -4 20 -1 37 0 37 3 0 7 79 1 100 -7
28 -11 40 -11 33 0 -4 6 0 8 10 4 10 -3 17 -3 17 1 0 8 76 4 100 -5 28 -11 40
-11 33 0 -4 6 0 8 10 4 10 -3 17 -3 17 1 0 8 76 4 100 -5 28 -11 40 -11 33 0
-4 6 0 8 10 4 10 -3 17 -3 17 1 0 8 76 4 100 -5 28 -11 40 -11 33 0 -4 6 0 8
10 4 10 -3 17 -3 17 1 0 8 76 4 100 -5 28 -11 40 -11 33 0 -4 6 0 8 10 4 10
-3 17 -3 17 1 0 11 72 2 89 -12 12 -9 13 -8 6 3 -6 11 -4 13 8 8 10 -3 17 -2
17 3 0 5 6 7 13 5 25 -10 137 -10 141 0 3 5 5 5 5 -2 1 -7 8 -10 16 -7 8 4 23
0 32 -7 14 -12 16 -12 8 0 -6 11 -4 13 8 8 10 -4 17 -2 17 5 0 6 10 3 22 -8
12 -10 18 -13 14 -6 -9 15 10 16 20 0 5 -8 11 -6 20 6 8 12 14 14 19 6 6 -9
10 -9 16 1 5 8 9 10 9 4 0 -6 24 -9 55 -8 40 1 54 -2 49 -10 -3 -7 1 -4 9 5 8
10 17 15 20 12 3 -4 101 -6 217 -5 168 1 210 -1 204 -11 -6 -10 -4 -10 8 0 9
8 25 12 35 10 10 -1 24 2 32 6 11 7 13 5 9 -5 -4 -10 1 -15 14 -16 10 -1 21 4
24 10 3 8 24 11 64 9 42 -3 58 -7 53 -15 -4 -7 0 -6 9 1 9 8 25 12 35 10 10
-1 24 2 32 6 11 7 13 5 9 -5 -4 -10 1 -15 14 -16 10 -1 21 4 24 10 3 8 24 11
64 9 42 -3 58 -7 53 -15 -5 -9 -2 -8 8 0 10 8 46 11 102 10 51 -1 89 2 91 8 3
7 5 7 5 0 1 -6 20 -9 46 -7 41 4 45 2 42 -17 -2 -11 -6 -24 -10 -27 -4 -4 -7
-15 -7 -24 0 -8 -8 -16 -18 -17 -11 -1 -18 6 -18 18 0 12 5 18 14 14 7 -2 10
0 7 5 -3 6 -1 10 6 10 7 0 10 3 7 6 -4 3 -15 1 -26 -5 -27 -14 -22 -56 7 -57
13 -1 24 4 26 10 2 6 6 20 11 31 10 26 11 32 13 48 1 11 12 12 46 7 29 -4 46
-3 49 4 2 6 5 7 5 1 1 -6 44 -9 112 -8 96 2 109 0 98 -13 -7 -8 -20 -12 -33
-9 -19 5 -19 5 -4 -5 17 -10 16 -13 -7 -38 -14 -15 -25 -32 -25 -39 0 -7 -4
-13 -10 -13 -5 0 -10 -9 -10 -20 0 -11 -7 -20 -16 -20 -9 0 -13 5 -9 13 4 6 1
5 -7 -3 -9 -11 -30 -14 -73 -13 -33 1 -75 2 -93 2 -19 1 -31 5 -27 11 3 6 2
10 -3 10 -6 0 -13 -8 -16 -17 -6 -14 -9 -15 -15 -4 -6 10 -10 10 -16 2 -5 -9
-10 -9 -21 0 -16 13 -9 33 8 23 7 -4 8 -2 4 5 -6 9 -11 9 -22 0 -7 -6 -11 -15
-9 -20 6 -9 -297 -16 -398 -9 -37 3 -67 3 -67 0 0 -3 -188 -4 -417 -3 -230 2
-431 3 -446 3 -24 0 -27 3 -22 20 4 11 2 20 -4 20 -6 0 -10 -3 -10 -7 4 -28
-3 -39 -26 -38 -14 1 -27 3 -29 6 -2 2 -65 2 -139 -1 -75 -3 -152 -2 -171 1
-19 3 -40 1 -46 -5 -7 -7 -10 -4 -10 9 -1 19 -1 19 -11 2 -6 -9 -15 -15 -20
-11 -6 4 -5 12 3 22 10 14 10 15 -2 5 -9 -9 -19 -9 -34 -2 -20 10 -20 10 -2
-5 11 -9 17 -16 13 -17 -4 0 -36 0 -72 0 -36 0 -68 0 -71 0 -4 1 0 9 7 19 11
14 11 15 -1 5 -9 -9 -19 -9 -34 -2 -20 10 -20 10 -2 -5 11 -9 17 -16 13 -17
-4 0 -36 0 -72 0 -36 0 -68 0 -71 0 -4 1 0 9 7 19 11 14 11 15 -1 5 -9 -9 -19
-9 -34 -2 -20 10 -20 10 -2 -5 11 -9 17 -16 13 -17 -4 0 -36 0 -72 0 -36 0
-68 0 -71 0 -4 1 0 9 7 19 11 14 11 15 -1 5 -9 -9 -19 -9 -34 -2 -20 10 -20
10 -2 -5 11 -9 17 -16 13 -17 -4 0 -36 0 -72 0 -36 0 -68 0 -71 0 -4 1 0 9 7
19 13 16 12 16 -6 0 -25 -21 -88 -26 -108 -10 -12 10 -17 10 -23 1 -4 -8 -3
-9 4 -5 7 4 12 2 12 -4 0 -7 32 -45 70 -84 39 -40 68 -75 65 -77 -6 -6 41 -10
162 -12 62 -1 105 2 107 8 3 6 5 7 5 0 1 -7 344 -10 1011 -9 874 0 1012 -1
1019 -14 6 -10 10 -11 15 -3 4 6 1 11 -6 11 -10 0 -9 3 2 9 8 6 18 8 22 5 4
-3 82 -5 173 -5 104 -1 167 -5 172 -12 4 -6 -2 -8 -18 -4 -22 6 -23 5 -5 -8
11 -9 15 -18 10 -27 -9 -13 -10 -18 -12 -51 -1 -11 -7 -15 -13 -11 -7 4 -9 0
-5 -14 5 -15 2 -23 -11 -29 -21 -10 -124 -10 -141 1 -7 4 -12 3 -12 -2 0 -5
-13 -9 -30 -8 -16 1 -30 5 -30 9 0 4 -8 3 -18 -2 -13 -7 -23 -6 -30 1 -9 9
-12 9 -12 0 0 -13 -26 -12 -47 1 -8 5 -13 3 -13 -5 0 -9 -3 -9 -10 2 -5 8 -10
10 -10 5 0 -12 -169 -13 -188 -1 -7 4 -12 4 -12 -1 0 -4 -42 -8 -92 -8 -86 1
-93 2 -91 20 2 18 1 17 -9 -2 -11 -22 -30 -25 -55 -10 -8 5 -13 3 -13 -5 0 -9
-3 -9 -10 2 -6 9 -10 10 -10 3 0 -6 -9 -11 -20 -10 -18 1 -24 10 -21 30 0 4
-4 7 -9 7 -6 0 -10 -8 -8 -17 3 -19 -28 -25 -49 -9 -8 5 -13 5 -13 -1 0 -6
-13 -10 -30 -9 -16 1 -30 5 -30 9 0 4 -8 4 -17 0 -22 -10 -54 -10 -71 0 -6 5
-12 4 -12 -1 0 -5 -13 -9 -30 -8 -16 1 -30 5 -30 9 0 4 -10 3 -21 -4 -17 -9
-20 -8 -13 3 6 10 5 11 -7 2 -16 -12 -108 -12 -127 0 -7 4 -12 4 -12 -1 0 -10
-291 -10 -308 0 -6 5 -12 5 -12 0 0 -4 -42 -8 -92 -7 -75 0 -92 3 -90 15 2 10
-1 9 -11 -3 -14 -17 -32 -19 -54 -5 -8 5 -13 3 -13 -5 0 -9 -3 -9 -10 2 -5 8
-10 10 -10 5 0 -12 -169 -13 -188 -1 -7 4 -12 4 -12 -1 0 -4 -42 -8 -92 -8
-86 1 -93 2 -91 20 2 17 1 17 -9 -3 -13 -26 -34 -24 -30 4 2 18 2 18 -8 1 -6
-9 -16 -15 -22 -11 -6 4 -6 -2 1 -15 7 -11 19 -21 27 -21 8 0 12 -4 9 -10 -3
-5 -1 -10 5 -10 6 0 52 -27 103 -61 74 -49 100 -61 135 -62 23 -1 42 -6 42
-12 0 -5 5 -3 10 5 9 13 10 13 10 0 0 -9 3 -11 8 -4 9 13 62 14 62 1 0 -5 6
-4 14 2 11 10 15 8 19 -6 4 -17 5 -17 6 0 0 9 8 17 17 17 11 0 14 -5 10 -16
-6 -14 -4 -15 9 -4 21 17 118 23 108 7 -4 -7 2 -5 12 3 15 12 17 12 10 1 -6
-11 -5 -12 6 -5 8 5 25 10 37 12 17 2 22 -1 16 -10 -5 -8 -1 -8 11 2 15 12 17
12 10 1 -6 -11 -5 -12 6 -5 8 5 25 10 37 12 17 2 22 -1 16 -10 -5 -8 -1 -8 11
2 15 12 17 12 10 1 -6 -11 -5 -12 6 -5 8 5 25 10 37 12 17 2 22 -1 16 -10 -5
-8 -1 -8 11 2 15 12 17 12 10 1 -6 -11 -5 -12 6 -5 8 5 25 10 37 12 17 2 22
-1 16 -10 -5 -8 -1 -8 11 2 15 12 17 12 10 1 -6 -11 -5 -12 6 -5 8 5 25 10 37
12 17 2 22 -1 16 -10 -5 -8 -1 -8 11 2 15 12 17 12 10 1 -6 -11 -5 -12 6 -5 8
5 25 10 37 12 17 2 22 -1 16 -10 -5 -8 -1 -8 11 2 15 12 17 12 10 1 -6 -11 -5
-12 6 -5 23 14 62 17 53 3 -5 -9 -3 -9 7 -3 8 5 46 9 84 9 53 0 72 -4 77 -15
5 -12 7 -12 7 3 1 9 8 17 17 17 10 0 14 -6 11 -15 -4 -8 -1 -17 5 -21 6 -4 8
-3 4 4 -12 19 17 27 104 27 66 0 86 -3 92 -15 5 -12 7 -12 7 3 1 9 8 17 17 17
10 0 14 -6 11 -15 -4 -8 -1 -17 5 -21 6 -4 8 -3 4 4 -12 19 17 27 104 27 66 0
86 -3 92 -15 5 -12 7 -12 7 3 1 9 8 17 17 17 10 0 14 -6 11 -15 -4 -8 -1 -17
5 -21 6 -4 8 -3 4 4 -12 19 17 27 104 27 66 0 86 -3 92 -15 5 -12 7 -12 7 3 1
9 8 17 17 17 10 0 14 -6 11 -15 -4 -8 -1 -17 5 -21 6 -4 8 -3 4 4 -12 19 17
27 104 27 66 0 86 -3 92 -15 5 -12 7 -12 7 3 1 9 8 17 17 17 10 0 14 -6 11
-14 -4 -10 -1 -13 8 -9 8 3 12 9 9 14 -3 5 -1 9 5 9 16 0 21 -16 15 -48 -4
-17 -14 -33 -23 -35 -14 -4 -14 -5 1 -6 13 -1 15 -7 9 -28 -4 -16 -6 -35 -3
-43 5 -13 3 -13 -13 0 -10 8 -16 10 -12 3 5 -8 -6 -11 -40 -9 -27 2 -54 -2
-62 -8 -12 -9 -13 -8 -8 7 5 13 3 16 -6 10 -6 -4 -20 -9 -31 -10 -14 -2 -17 1
-12 14 6 16 5 17 -7 2 -9 -12 -26 -16 -60 -15 -26 1 -47 -2 -47 -6 0 -4 -10
-4 -22 1 -13 4 -40 7 -61 5 -26 -2 -36 0 -31 8 5 7 2 8 -7 2 -24 -15 -40 -16
-124 -11 -27 2 -56 -1 -64 -7 -12 -9 -13 -7 -8 7 5 13 3 16 -6 10 -6 -4 -20
-9 -31 -10 -14 -2 -17 1 -12 14 6 16 5 17 -7 2 -9 -12 -26 -16 -60 -15 -26 1
-47 -2 -47 -6 0 -4 -10 -4 -22 1 -13 4 -40 7 -61 5 -26 -2 -36 0 -31 8 5 7 2
8 -7 2 -24 -15 -40 -16 -126 -11 -30 1 -53 -2 -53 -7 0 -5 -7 -1 -16 10 -8 10
-13 14 -10 8 7 -14 -136 -14 -146 0 -5 8 -8 7 -8 -1 0 -7 -9 -10 -22 -8 -12 3
-26 -1 -30 -8 -4 -7 -8 -8 -8 -1 0 6 -18 9 -42 8 -24 -1 -46 3 -50 9 -6 9 -8
9 -8 0 0 -7 -9 -10 -22 -8 -12 3 -26 -1 -30 -8 -5 -7 -8 -8 -8 -1 0 6 -18 10
-45 8 -30 -2 -45 1 -45 9 0 7 -4 6 -10 -3 -5 -8 -10 -11 -10 -6 0 5 -8 2 -17
-5 -9 -8 -14 -9 -10 -3 8 14 -44 14 -54 1 -3 -5 -13 -2 -22 7 -14 14 -16 14
-21 0 -8 -22 -8 -26 4 -19 5 3 20 0 32 -7 13 -6 30 -12 38 -13 8 0 14 -4 13
-10 -1 -5 11 -10 25 -11 39 -1 89 -12 129 -29 19 -8 37 -14 41 -14 4 1 9 0 12
-1 9 -3 45 -10 68 -12 12 -1 22 -5 22 -8 0 -3 14 -6 30 -6 17 -1 41 -10 53
-20 21 -19 21 -19 7 0 -14 18 -13 19 5 12 11 -5 36 -10 55 -13 19 -3 46 -15
60 -26 l25 -22 -19 23 c-16 18 -16 22 -4 22 17 0 41 -24 33 -32 -3 -2 2 -5 10
-5 11 0 12 4 4 13 -9 11 -1 12 38 8 56 -7 65 -7 78 -4 19 5 36 0 31 -8 -3 -5
1 -9 9 -9 8 0 12 3 10 7 -2 4 2 7 10 7 8 0 12 -3 10 -7 -2 -4 2 -7 10 -7 8 0
12 4 9 8 -5 9 62 2 79 -8 5 -3 8 -2 4 3 -3 5 112 9 279 9 255 -1 285 -2 296
-18 10 -12 17 -14 28 -6 13 9 13 10 -2 6 -9 -3 -19 0 -21 7 -3 8 6 12 29 12
19 -1 34 -4 34 -8 0 -5 5 -8 11 -8 5 0 8 4 5 9 -8 12 56 9 70 -4 7 -5 10 -13
7 -17 -2 -5 1 -8 6 -8 14 0 14 13 -1 28 -14 14 -12 15 30 3 20 -6 30 -6 27 0
-4 5 -1 9 5 9 12 0 56 -71 52 -84 -1 -4 6 -16 18 -26 11 -9 20 -25 20 -34 0
-9 8 -16 18 -16 14 0 15 -2 2 -10 -13 -9 -13 -10 0 -10 16 0 76 -87 73 -107 0
-7 3 -11 7 -8 4 3 20 -14 36 -38 16 -23 33 -45 39 -49 6 -5 4 -8 -5 -8 -8 -1
-4 -5 9 -11 15 -6 21 -14 17 -25 -3 -8 -2 -13 3 -10 13 8 63 -62 55 -76 -4 -6
-3 -8 3 -5 12 8 89 -92 85 -111 -2 -8 1 -11 6 -8 8 5 40 -46 44 -71 1 -5 8
-14 15 -22 8 -7 12 -20 9 -27 -3 -7 2 -17 11 -22 11 -6 12 -11 4 -16 -6 -4
-11 -13 -11 -19 0 -7 4 -6 10 3 8 12 10 12 11 -5 0 -11 3 -29 5 -40 9 -37 4
-93 -16 -166 -7 -24 -14 -55 -17 -68 -2 -14 -7 -29 -11 -35 -3 -6 -7 -15 -8
-21 -3 -33 -18 -75 -26 -75 -5 0 -6 -4 -3 -10 3 -5 0 -29 -6 -52 -7 -24 -13
-48 -15 -54 -11 -55 -78 -125 -104 -109 -6 3 -10 0 -10 -7 -1 -7 -7 -2 -16 12
-14 24 -15 24 -9 2 6 -20 3 -22 -17 -20 -13 2 -29 7 -35 11 -7 5 -17 5 -23 2
-5 -3 -10 -1 -10 4 0 6 5 11 11 11 6 0 3 7 -5 16 -9 8 -14 20 -11 25 9 13 25
11 21 -3 -1 -7 -1 -10 1 -5 3 4 10 4 16 0 7 -4 6 1 -2 10 -11 14 -11 20 -1 32
7 8 9 15 5 15 -4 0 -13 -8 -20 -17 -11 -15 -12 -14 -12 9 0 21 4 26 23 23 14
-1 27 3 31 9 3 6 3 8 -1 4 -10 -8 -36 14 -29 25 3 4 11 3 19 -4 22 -18 40 4
20 24 -14 13 -14 16 0 28 14 11 14 13 0 21 -19 11 -55 -5 -37 -16 6 -4 11 -12
11 -17 0 -6 -4 -8 -9 -5 -5 3 -15 -2 -22 -12 -13 -15 -12 -16 4 -3 10 8 17 9
17 3 0 -6 -8 -16 -17 -21 -10 -6 -12 -11 -5 -11 6 0 12 -5 12 -11 0 -5 -4 -8
-9 -4 -11 6 -20 -6 -26 -35 -2 -11 1 -20 8 -20 8 0 8 -3 -1 -12 -7 -7 -8 -17
-2 -29 7 -11 7 -20 0 -24 -5 -3 -11 2 -11 12 -5 69 -5 89 0 98 3 6 6 13 7 18
1 4 2 8 3 10 2 1 5 13 7 27 2 13 8 27 12 30 4 3 8 18 9 35 1 16 6 36 9 45 9
20 11 27 13 46 1 9 6 12 14 8 8 -5 8 -2 -2 9 -8 10 -9 17 -3 17 6 0 11 8 11
18 1 44 5 53 18 47 8 -3 18 -5 22 -5 4 0 7 -9 8 -19 1 -13 -3 -18 -13 -14 -7
3 -11 10 -7 16 4 6 1 7 -6 3 -7 -5 -10 -10 -7 -13 3 -3 1 -14 -5 -24 -7 -15
-6 -17 6 -13 8 3 12 10 9 15 -3 5 0 9 5 9 6 0 11 -5 11 -12 0 -6 6 -4 13 7 8
10 19 15 25 11 8 -4 10 -2 6 8 -3 8 -11 13 -18 10 -6 -2 -12 5 -13 17 -2 17 1
18 13 9 19 -16 18 -3 -1 16 -16 16 -20 35 -7 33 19 -3 32 2 32 12 0 8 -5 8
-15 -1 -9 -8 -15 -9 -15 -2 0 6 10 18 22 26 12 9 19 18 16 21 -3 4 -17 -5 -31
-19 -14 -14 -22 -27 -19 -30 3 -3 0 -6 -5 -6 -6 0 -10 -11 -8 -25 1 -15 -2
-24 -8 -22 -13 4 -17 47 -5 47 5 0 6 5 3 10 -3 6 -2 10 2 10 5 0 9 8 10 18 3
27 10 67 12 67 2 0 4 11 7 25 7 40 35 151 45 177 l9 23 -319 0 -319 0 -5 -22
c-7 -35 -138 -511 -144 -528 -3 -8 -7 -21 -9 -28 -1 -7 -15 -59 -30 -115 -38
-141 -39 -278 -2 -354 25 -53 80 -113 133 -148 17 -11 32 -20 35 -20 23 -4 49
-18 45 -25 -3 -5 3 -9 12 -9 22 -1 86 -8 93 -11 3 -1 9 -1 15 0 5 1 7 -2 3 -6
-4 -4 0 -13 10 -21 16 -14 16 -14 -2 -9 -17 6 -17 5 -5 -10 12 -15 12 -17 -1
-12 -8 3 -14 12 -14 21 1 9 -3 14 -9 10 -6 -3 -7 -1 -3 5 7 11 -31 8 -43 -4
-3 -3 3 -4 13 -2 10 1 21 -3 23 -10 3 -8 -2 -10 -14 -6 -11 3 -14 2 -7 -3 6
-4 16 -17 23 -28 11 -18 11 -18 5 5 -6 21 -5 23 8 13 8 -7 24 -11 36 -8 21 4
26 -3 23 -35 -1 -11 1 -11 9 3 6 9 8 22 5 27 -3 6 -2 10 4 10 17 0 23 -20 11
-35 -9 -11 -9 -15 -1 -15 6 0 11 5 11 11 0 8 4 8 13 1 7 -6 26 -9 42 -6 25 4
27 3 15 -11 -8 -10 -9 -15 -1 -15 6 0 11 5 11 12 0 6 3 8 7 5 3 -4 17 3 30 15
22 21 34 13 12 -9 -8 -8 -8 -16 0 -30 10 -16 11 -15 5 7 -6 22 -5 23 10 11 10
-9 16 -10 16 -2 0 6 -5 11 -11 11 -5 0 -7 5 -4 10 5 8 12 7 23 -2 13 -11 14
-11 7 1 -6 11 -4 13 8 8 12 -4 14 -2 10 11 -5 13 -3 14 7 5 7 -6 19 -9 26 -6
10 4 12 0 8 -13 -5 -16 -4 -16 5 -4 9 13 11 13 11 -3 0 -9 -11 -22 -24 -29
-14 -6 -27 -17 -30 -25 -3 -7 10 -2 29 13 19 14 35 34 36 43 0 9 3 11 5 4 3
-7 13 -10 22 -7 11 4 9 -1 -7 -15 -13 -12 -21 -24 -18 -28 4 -3 15 5 26 18 15
19 21 21 34 11 12 -10 16 -9 21 4 3 9 1 23 -5 30 -16 19 1 18 22 -2 16 -14 16
-18 4 -31 -8 -8 -15 -19 -15 -25 0 -6 10 1 23 15 23 27 45 38 31 15 -4 -6 -3
-8 4 -4 5 3 13 0 15 -6 3 -7 4 2 2 20 -2 18 -9 40 -16 48 -8 9 -8 14 -1 14 6
0 16 -9 22 -20 6 -11 15 -18 21 -15 5 4 9 1 9 -4 0 -6 -4 -11 -10 -11 -5 0
-10 -5 -10 -11 0 -8 6 -7 16 2 15 12 16 11 9 -10 -5 -16 -4 -21 4 -17 6 4 11
15 11 24 0 14 3 13 18 -5 15 -19 19 -20 36 -8 20 15 41 11 31 -6 -4 -5 -1 -9
4 -9 16 0 13 16 -4 30 -8 7 -15 17 -15 23 0 6 10 1 23 -10 12 -11 29 -23 37
-27 8 -4 7 -1 -3 7 -18 15 -18 16 1 26 12 6 27 8 35 5 9 -3 26 6 41 23 14 15
26 22 26 16 0 -7 -4 -14 -10 -18 -11 -7 -2 -35 12 -35 7 0 6 5 -1 13 -11 14
-5 27 11 27 5 0 7 -4 3 -9 -3 -6 5 -15 17 -21 21 -10 21 -10 6 3 -17 13 -17
15 0 31 10 9 22 13 25 9 4 -3 7 -1 7 6 0 8 -7 10 -22 5 -20 -6 -21 -5 -10 9 8
9 10 22 6 28 -4 7 -3 9 4 5 6 -3 13 -2 17 4 3 5 11 10 17 10 6 0 3 -10 -8 -22
-18 -22 -18 -22 0 -8 17 14 18 13 12 -6 -4 -14 -1 -26 11 -35 16 -13 17 -12 4
4 -8 9 -10 21 -6 25 4 4 10 1 12 -5 3 -7 9 -13 14 -13 6 0 7 6 2 13 -12 18
-11 58 2 54 5 -3 9 -14 8 -26 -2 -12 4 -24 12 -27 8 -4 12 -11 8 -17 -4 -6 -1
-7 7 -2 10 6 9 11 -6 23 -13 10 -15 16 -6 19 6 3 9 9 6 15 -4 6 -1 9 7 6 8 -3
13 -14 11 -24 -2 -15 -1 -16 7 -4 7 10 6 19 -2 29 -10 12 -9 14 5 9 18 -8 31
13 22 37 -4 10 -2 13 8 10 9 -4 20 4 28 20 17 32 28 32 26 0 0 -16 -6 -23 -13
-20 -7 2 -13 1 -13 -4 0 -10 36 -21 44 -13 3 3 1 11 -5 18 -7 9 -7 19 1 34 9
16 9 25 1 33 -14 14 -14 37 0 37 5 0 8 -3 5 -8 -2 -4 2 -16 10 -27 8 -10 14
-13 14 -6 0 7 5 9 12 5 8 -5 5 -13 -10 -25 -12 -9 -22 -22 -22 -29 0 -6 11 0
23 14 13 14 28 22 33 18 5 -4 -4 8 -20 26 -17 17 -25 32 -18 32 6 0 14 -5 17
-10 9 -14 26 -12 24 3 -4 33 2 49 17 43 8 -3 12 -2 9 4 -3 6 -1 10 5 10 7 0
10 7 6 15 -7 19 43 78 61 71 10 -4 11 -1 3 14 -15 28 -12 38 5 16 8 -11 15
-15 15 -9 0 7 -4 15 -10 18 -5 3 -10 11 -10 18 0 8 3 8 12 -1 7 -7 17 -12 22
-12 6 0 1 7 -11 15 -13 9 -20 22 -16 31 6 16 18 10 18 -9 0 -7 10 -13 22 -13
12 -1 20 2 17 7 -2 4 -12 5 -22 2 -9 -3 -14 -3 -10 2 4 4 3 14 -4 22 -8 10 -6
19 12 38 13 14 20 28 17 32 -4 3 -7 1 -7 -6 0 -8 -5 -9 -18 -2 -12 6 -18 19
-16 33 4 34 4 34 15 15 5 -9 7 -22 4 -27 -3 -5 0 -7 7 -5 7 3 19 15 26 26 8
12 9 18 3 14 -10 -5 -15 6 -12 27 0 3 -7 5 -17 3 -9 -2 -21 -4 -25 -4 -5 -1
-6 -5 -2 -10 3 -5 1 -12 -3 -15 -5 -3 -8 -17 -7 -31 2 -14 -3 -29 -12 -34 -13
-7 -13 -9 1 -14 8 -3 18 -2 21 3 4 6 12 10 18 10 7 -1 1 -10 -12 -21 -13 -11
-31 -17 -38 -15 -9 4 -11 1 -7 -6 4 -7 3 -8 -5 -4 -14 9 -11 -15 4 -27 6 -5 2
-6 -8 -3 -10 3 -16 2 -13 -2 3 -5 -1 -9 -9 -9 -19 0 -19 13 0 21 8 3 12 12 9
19 -3 8 2 17 10 20 9 4 13 15 11 27 -3 13 0 18 7 14 8 -5 9 -1 5 10 -5 11 -3
15 4 10 7 -4 10 -1 7 7 -3 8 0 28 7 46 8 17 11 34 8 37 -4 3 2 15 11 25 11 13
15 27 11 40 -5 16 -2 21 12 21 14 0 15 -2 4 -9 -9 -6 -10 -10 -2 -16 9 -5 9
-10 1 -20 -18 -22 13 -25 39 -4 13 11 18 19 12 19 -6 0 -11 4 -11 10 0 5 8 7
18 4 16 -5 16 -5 0 9 -10 8 -14 17 -10 21 4 4 1 6 -7 4 -7 -2 -16 3 -18 10 -3
8 1 10 13 5 13 -5 16 -3 11 10 -4 10 0 20 11 26 10 6 12 11 5 11 -7 0 -13 5
-13 11 0 6 6 9 14 6 8 -3 21 0 30 6 14 11 15 15 3 31 -16 21 -42 13 -33 -11 5
-11 1 -13 -17 -8 -17 5 -19 4 -7 -4 10 -7 11 -11 2 -11 -6 0 -11 -5 -10 -11 2
-6 -2 -13 -8 -16 -7 -2 -10 6 -7 24 2 15 5 33 5 40 1 7 5 10 10 7 4 -3 17 1
27 8 19 14 19 14 1 26 -21 13 -17 38 9 60 14 10 14 11 -3 6 -16 -6 -17 -4 -8
13 6 11 8 24 4 28 -4 5 -2 5 4 2 8 -5 12 3 13 21 0 15 0 37 1 50 0 13 6 22 16
22 14 0 15 -3 3 -17 -7 -10 -9 -15 -5 -11 5 4 15 3 23 -3 9 -9 13 -8 13 0 0 6
-6 11 -12 11 -10 0 -10 2 0 9 11 6 10 10 -5 16 -10 5 -21 8 -25 7 -4 -1 -5 5
-1 13 4 12 9 13 19 4 8 -6 14 -8 14 -3 0 5 5 1 11 -9 8 -14 14 -16 25 -6 8 6
14 16 14 22 0 6 -6 3 -13 -7 -13 -17 -14 -18 -20 -2 -4 10 -11 15 -16 12 -5
-3 -12 2 -16 12 -11 25 -12 72 -2 72 5 0 4 6 -2 14 -6 8 -11 18 -9 22 4 16
-22 114 -37 144 -9 17 -12 30 -8 30 5 0 4 4 -2 8 -5 4 -16 18 -24 32 -8 14
-19 34 -25 44 -6 11 -19 29 -28 40 -10 11 -18 26 -18 33 0 7 -4 13 -10 13 -5
0 -10 7 -10 15 0 8 -4 15 -10 15 -5 0 -10 7 -10 15 0 8 -4 15 -10 15 -5 0 -10
5 -10 10 0 6 -9 20 -20 32 -11 12 -20 28 -20 35 0 7 -4 13 -8 13 -11 0 -55 61
-55 76 0 7 -4 11 -8 8 -4 -2 -13 6 -20 18 -7 13 -30 45 -53 73 -23 27 -34 45
-26 41 8 -5 2 3 -14 16 -20 17 -27 29 -21 39 5 8 5 11 0 7 -11 -10 -57 62 -57
89 0 12 -4 20 -9 17 -5 -3 -9 4 -9 15 0 12 -5 21 -11 21 -5 0 -7 5 -3 11 4 7
15 2 31 -15 24 -27 44 -37 24 -13 -6 8 -7 17 -3 21 4 4 2 6 -5 4 -15 -4 -17 3
-9 30 4 12 12 19 18 16 7 -5 8 -2 3 6 -6 10 -11 9 -22 -5 -7 -11 -13 -22 -13
-25 0 -4 -7 -7 -15 -7 -20 0 -28 27 -13 45 10 12 10 14 1 8 -7 -4 -13 -3 -13
3 0 5 -3 17 -7 27 -3 10 -2 15 3 12 5 -3 15 1 23 9 12 13 11 14 -5 9 -16 -5
-20 -1 -22 22 -1 24 0 25 12 10 15 -21 32 -23 42 -6 5 8 2 9 -9 5 -29 -11 -45
56 -22 92 4 7 9 31 11 53 2 22 7 45 11 52 4 6 6 19 5 28 -3 17 30 42 42 31 12
-12 6 -22 -12 -18 -11 2 -19 -3 -19 -11 0 -10 4 -11 13 -3 8 7 14 7 19 -1 4
-6 14 -9 22 -6 9 4 22 1 29 -5 9 -7 14 -8 14 -1 0 6 -6 13 -12 15 -10 4 -9 8
2 17 12 9 10 10 -10 4 -22 -6 -23 -5 -11 9 7 9 17 14 22 11 5 -3 19 2 31 10
29 20 44 21 28 1 -21 -26 -7 -23 19 4 14 14 17 22 8 18 -9 -3 -21 1 -28 9 -10
12 -8 14 12 12 21 -3 24 1 24 32 0 19 3 40 7 45 4 6 -8 10 -30 9 -54 -2 -56
-3 -43 -17 6 -8 8 -17 4 -20 -10 -11 -23 -8 -21 4 2 6 -4 14 -12 16 -12 4 -12
3 -1 -5 9 -7 10 -12 2 -16 -6 -4 -9 -12 -5 -17 3 -5 10 -7 15 -4 5 3 6 -1 3
-10 -5 -11 -10 -13 -19 -5 -18 15 -12 64 9 68 9 2 14 7 12 11 -3 4 0 8 7 9 7
0 22 3 34 6 13 2 25 1 28 -4 3 -4 15 -6 26 -3 21 6 21 5 5 -20 -11 -16 -13
-27 -7 -31 6 -4 8 -13 4 -21 -3 -8 0 -15 7 -15 6 0 8 5 4 12 -5 7 -3 8 7 3 8
-5 5 2 -6 15 -19 22 -19 23 -1 16 16 -5 17 -4 6 9 -7 8 -8 15 -2 15 12 0 22
-23 18 -41 -2 -8 -7 -33 -11 -56 -4 -24 -11 -43 -15 -43 -5 0 -6 -9 -3 -20 3
-11 1 -20 -5 -20 -6 0 -8 -10 -4 -22 4 -16 2 -19 -8 -13 -8 5 -11 4 -6 -3 3
-6 -1 -37 -10 -69 -8 -32 -17 -65 -19 -73 -2 -8 -4 -15 -5 -15 -1 0 -4 -13 -6
-29 -2 -16 -7 -33 -13 -39 -5 -5 -7 -16 -4 -23 3 -8 0 -14 -7 -14 -6 0 -8 -4
-5 -10 3 -5 3 -16 -2 -22 -4 -7 -9 -24 -11 -37 -2 -13 -9 -40 -16 -60 l-12
-36 53 1 c33 1 53 -3 53 -10 0 -8 2 -8 8 0 11 17 42 13 43 -5 0 -12 3 -11 8 4
8 19 8 19 20 -3 10 -18 15 -20 31 -12 13 7 20 7 20 1 0 -19 -36 -31 -50 -18
-10 8 -10 6 0 -7 14 -18 13 -19 -8 -14 -12 4 -20 2 -16 -3 8 -14 23 -11 55 12
16 11 29 16 29 10 0 -5 -10 -17 -22 -25 -12 -9 -19 -18 -17 -21 3 -2 16 5 28
16 23 22 42 19 23 -4 -8 -9 -8 -17 0 -27 8 -12 9 -12 4 2 -3 10 -1 20 4 23 6
4 10 2 10 -4 0 -6 10 -15 23 -21 21 -11 21 -10 3 4 -11 9 -16 19 -12 23 4 5
16 -2 26 -14 14 -18 19 -20 24 -8 3 8 1 17 -4 20 -6 4 -10 11 -10 17 0 7 4 7
13 0 14 -12 35 -11 56 2 11 7 13 5 8 -6 -3 -9 1 -24 9 -35 13 -17 14 -17 8 2
-5 19 -5 19 9 3 8 -10 18 -18 22 -18 5 0 0 9 -10 20 -19 21 -7 28 13 8 9 -9
12 -9 12 0 0 7 -6 12 -12 12 -9 0 -9 3 1 9 22 14 44 -19 23 -35 -12 -9 -12
-13 -2 -19 9 -6 11 -4 5 5 -6 10 -4 12 9 7 10 -4 15 -3 11 3 -3 6 -1 11 4 11
6 1 17 2 24 3 6 1 17 -5 24 -14 7 -8 13 -10 13 -5 1 6 6 1 11 -10 l9 -20 -3
20 c-2 11 -9 19 -15 18 -16 -4 -15 14 1 21 6 3 -1 3 -16 1 -18 -3 -27 0 -24 8
2 6 18 12 35 12 26 1 31 -3 27 -16 -3 -10 1 -19 11 -23 15 -6 15 -4 3 10 -12
15 -11 16 11 10 18 -5 21 -4 11 3 -17 11 -24 44 -9 39 5 -2 9 -7 8 -12 -2 -9
19 -26 33 -26 4 0 7 5 7 11 0 5 -4 7 -10 4 -5 -3 -10 -2 -10 3 0 18 13 21 34
7 11 -8 25 -15 31 -15 5 1 -2 7 -17 15 -22 12 -26 21 -23 45 2 16 0 32 -5 35
-5 3 -7 -6 -4 -19 3 -21 1 -24 -16 -21 -12 2 -18 0 -15 -6 4 -5 11 -7 16 -4 5
4 9 2 9 -4 0 -18 -20 -23 -26 -7 -3 9 -10 14 -14 11 -5 -3 -11 -1 -15 5 -4 6
-11 7 -17 4 -6 -4 -8 -2 -5 3 4 6 20 9 37 8 16 -1 31 1 31 6 1 5 2 13 3 18 2
19 15 22 35 9 17 -10 23 -10 33 1 11 11 9 12 -12 6 -24 -7 -24 -6 -8 11 15 15
19 15 34 3 15 -12 17 -12 9 0 -6 11 -4 13 9 8 11 -4 15 -3 11 4 -4 6 -13 8
-21 5 -7 -3 -16 -1 -19 4 -4 6 -1 10 6 10 7 0 9 3 5 7 -4 4 -18 -6 -31 -22
-13 -17 -24 -25 -25 -18 0 6 5 15 10 18 6 4 8 10 5 14 -6 10 36 29 53 24 6 -3
9 -10 5 -16 -3 -7 -2 -9 2 -5 5 5 10 20 11 35 2 24 1 26 -9 12 -11 -15 -20
-16 -57 -8 -11 3 -15 -4 -15 -23 0 -15 -6 -33 -14 -40 -12 -11 -13 -10 -6 7 4
11 8 29 10 40 1 11 4 21 5 23 1 1 3 7 4 12 0 6 8 15 16 20 11 7 11 10 2 10 -7
0 -10 5 -6 11 4 8 10 7 18 -1 8 -8 7 -15 -7 -24 -17 -13 -17 -14 2 -19 23 -6
48 7 32 17 -6 4 -11 12 -11 18 0 7 6 6 15 -2 14 -12 17 -9 14 17 0 4 8 11 18
15 16 7 16 8 -2 5 -11 -2 -19 -9 -18 -15 2 -7 -2 -12 -7 -12 -6 0 -10 6 -10
13 0 9 -3 8 -9 -2 -7 -11 -10 -11 -17 0 -13 21 -13 38 -2 46 6 3 8 1 5 -4 -8
-13 18 -24 38 -17 8 4 15 11 15 18 0 6 5 4 10 -4 6 -9 10 -10 10 -3 0 6 -4 14
-8 17 -10 6 -9 42 1 52 4 4 7 2 7 -4 0 -7 5 -12 11 -12 6 0 4 9 -5 21 -15 22
-11 53 5 43 5 -3 9 0 9 6 0 7 -7 10 -15 7 -8 -4 -17 -2 -20 2 -8 14 26 22 41
10 10 -8 14 -8 14 0 0 6 -5 11 -11 11 -8 0 -7 5 2 16 12 14 14 14 21 -3 7 -16
8 -16 5 2 -2 11 -9 19 -15 18 -17 -4 -15 17 3 23 8 4 15 10 15 15 0 5 -9 4
-20 -3 -11 -7 -19 -22 -18 -32 2 -11 -2 -21 -9 -23 -7 -3 -10 5 -9 21 4 29 -8
35 -18 10 -4 -9 -1 -23 5 -30 7 -9 8 -14 1 -14 -6 0 -12 6 -15 13 -5 13 -1
-60 4 -82 2 -7 -2 -16 -9 -18 -7 -3 -10 1 -6 10 3 8 1 18 -5 22 -7 3 -8 0 -5
-9 4 -10 1 -16 -7 -16 -11 0 -11 -3 1 -10 8 -5 10 -10 3 -10 -6 0 -10 -8 -8
-17 1 -12 9 -17 21 -15 18 3 18 3 2 -14 -10 -10 -20 -15 -24 -11 -11 11 -12
71 -2 85 6 6 7 12 3 12 -4 0 -2 7 5 15 6 8 9 19 5 25 -3 5 -1 10 5 10 6 0 9 4
5 10 -3 5 1 25 9 45 8 19 15 38 16 40 0 3 0 6 1 8 1 1 2 13 4 27 1 14 8 38 14
53 6 16 9 33 5 38 -3 5 -1 9 5 9 17 0 24 -22 10 -31 -10 -6 -10 -9 -2 -9 7 0
17 10 24 21 6 12 7 19 2 16 -8 -5 -40 23 -36 32 1 3 9 8 19 11 10 4 18 17 18
32 1 15 -2 24 -7 21 -5 -3 -7 -14 -4 -24 3 -11 0 -19 -7 -19 -20 0 -13 44 9
58 17 11 17 13 2 8 -14 -4 -17 -1 -15 12 2 9 11 16 19 14 8 -2 10 0 6 5 -5 4
-14 8 -20 8 -6 0 -12 16 -14 35 -12 119 -149 246 -296 276 -10 2 -26 5 -35 8
-38 12 -114 18 -245 20 -75 1 -138 1 -140 0z m-1662 -274 c3 -5 1 -10 -4 -10
-6 0 -11 5 -11 10 0 6 2 10 4 10 3 0 8 -4 11 -10z m245 0 c0 -5 -5 -10 -11
-10 -5 0 -7 5 -4 10 3 6 8 10 11 10 2 0 4 -4 4 -10z m1390 -192 c0 -10 2 -10
8 -1 5 8 13 9 22 3 13 -8 12 -10 -2 -10 -9 0 -20 -5 -23 -11 -4 -6 0 -9 10 -7
12 2 19 -5 21 -19 3 -18 0 -22 -19 -20 -16 1 -21 -3 -19 -15 4 -25 -7 -22 -17
5 -6 15 -5 29 4 43 10 16 11 24 2 33 -8 8 -8 11 1 11 7 0 12 -6 12 -12z m-76
-29 c-7 -12 25 -51 36 -44 10 6 22 -24 14 -36 -3 -6 -11 -8 -17 -6 -7 2 -20
-3 -30 -11 -13 -11 -20 -13 -28 -5 -6 6 -19 9 -28 6 -14 -4 -14 -3 -1 6 9 7
11 11 3 11 -8 0 -5 14 9 40 12 22 26 40 30 40 5 0 6 5 2 12 -4 7 -3 8 5 4 6
-4 9 -12 5 -17z m-4 -129 c0 -5 -5 -10 -11 -10 -5 0 -7 5 -4 10 3 6 8 10 11
10 2 0 4 -4 4 -10z m780 -199 c0 -5 -7 -11 -14 -14 -10 -4 -13 -1 -9 9 6 15
23 19 23 5z m-65 -161 c3 -5 1 -10 -4 -10 -6 0 -11 5 -11 10 0 6 2 10 4 10 3
0 8 -4 11 -10z m-475 -121 c0 -14 -29 -17 -34 -4 -3 9 2 13 15 12 10 -1 19 -4
19 -8z m46 -4 c12 16 14 16 14 3 0 -9 -5 -20 -10 -23 -6 -4 -8 -11 -4 -16 4
-6 11 -6 19 1 9 8 14 8 17 0 2 -7 10 -4 20 7 16 18 16 19 -5 20 -18 2 -19 0
-7 -8 12 -8 12 -10 1 -7 -19 5 -23 35 -5 35 8 0 14 -4 14 -9 0 -4 3 -7 8 -7
26 4 34 -1 22 -16 -17 -20 -7 -30 17 -16 12 7 14 10 4 11 -8 0 -11 3 -8 7 4 3
3 11 -3 17 -6 8 1 12 26 12 18 0 34 -4 34 -9 0 -5 8 -3 17 4 11 10 14 10 9 2
-4 -8 -2 -13 4 -13 6 0 8 -5 4 -11 -3 -6 -9 -7 -13 -3 -3 5 -13 10 -21 12 -12
2 -11 -1 2 -11 10 -8 14 -18 10 -23 -4 -4 1 -2 11 5 9 7 17 10 17 5 0 -5 -14
-17 -31 -26 -16 -10 -27 -13 -24 -8 3 5 1 19 -6 31 -7 15 -8 19 0 15 7 -5 9
-1 5 9 -8 20 -19 10 -19 -17 0 -23 -31 -33 -51 -17 -18 15 -28 -9 -13 -29 10
-13 8 -12 -9 2 -12 11 -25 16 -29 13 -7 -8 -53 51 -53 67 0 6 6 2 12 -8 11
-19 11 -19 24 -1z m276 0 c5 -6 8 -4 8 5 0 13 1 13 10 0 5 -8 14 -16 20 -16
21 -3 21 -4 7 -18 -8 -8 -23 -13 -33 -12 -10 2 -24 -1 -31 -6 -15 -12 -36 -1
-27 14 4 6 10 5 15 -3 7 -11 9 -10 9 4 0 10 5 15 10 12 6 -3 10 -2 10 4 0 5
-9 9 -20 8 -11 -1 -20 -4 -20 -7 0 -15 -36 -6 -37 9 -1 14 6 18 35 17 20 0 40
-5 44 -11z m-55 -32 c-4 -3 0 -15 10 -25 9 -10 11 -18 5 -18 -14 0 -34 35 -25
44 3 3 9 6 11 6 3 0 2 -3 -1 -7z m-106 -1166 c-1 -12 -15 -9 -19 4 -3 6 1 10
8 8 6 -3 11 -8 11 -12z m42 -41 c3 -8 0 -16 -7 -19 -6 -3 -13 4 -13 14 -2 22
12 25 20 5z m-52 -59 c-6 -8 -9 -17 -6 -20 3 -4 2 -5 -2 -2 -3 3 -12 0 -20 -6
-10 -9 -13 -8 -13 2 0 8 10 19 23 25 30 16 31 16 18 1z m-15 -59 c13 -21 12
-48 -3 -59 -10 -9 -12 -5 -9 20 2 21 -2 34 -13 41 -15 9 -14 9 1 10 9 0 20 -6
24 -12z m-936 -38 c0 -5 -4 -10 -10 -10 -5 0 -10 5 -10 10 0 6 5 10 10 10 6 0
10 -4 10 -10z m6 -57 c-7 -7 -26 7 -26 19 0 6 6 6 15 -2 9 -7 13 -15 11 -17z
m908 -72 c-6 -6 -24 19 -24 34 1 6 7 1 15 -9 8 -11 12 -22 9 -25z m-50 -106
c-7 -16 -24 -21 -24 -6 0 8 7 13 27 20 1 1 0 -6 -3 -14z m-14 -45 c-6 -11 -15
-20 -21 -20 -6 0 -7 5 -3 11 5 8 1 8 -13 0 -11 -6 -24 -7 -28 -3 -5 4 -5 1 -1
-6 4 -7 13 -9 19 -5 7 3 4 -3 -6 -15 -18 -20 -18 -20 0 -17 10 1 17 8 16 14
-2 6 7 11 19 11 20 0 20 -2 -11 -34 -18 -18 -33 -41 -35 -50 -1 -9 -10 -22
-20 -29 -9 -7 -18 -22 -19 -34 0 -12 -5 -19 -9 -17 -5 3 -7 13 -6 22 2 9 -2
16 -9 15 -7 -2 -10 4 -6 12 4 12 9 13 18 5 17 -14 27 1 14 20 -13 21 -11 36 3
22 15 -15 28 -15 28 -1 0 5 -5 7 -12 3 -6 -4 -8 -3 -4 4 3 6 2 13 -3 16 -5 4
-12 2 -16 -4 -3 -5 -12 -10 -18 -10 -7 0 -3 8 8 16 11 8 19 19 18 24 -2 5 5 6
15 3 14 -6 15 -4 4 9 -14 18 1 36 38 43 13 2 25 7 28 10 13 13 22 3 12 -15z
m-110 -122 c10 -20 9 -21 -2 -7 -15 18 -31 7 -36 -25 -3 -14 1 -17 14 -12 14
5 15 4 4 -9 -9 -11 -15 -13 -20 -4 -5 7 -13 3 -24 -12 -19 -27 -21 -40 -5 -37
6 2 14 -4 16 -12 4 -12 3 -12 -5 -1 -7 9 -12 10 -16 2 -4 -6 -12 -8 -18 -5 -7
5 -9 1 -5 -9 3 -8 -1 -21 -9 -27 -11 -10 -14 -10 -14 1 0 8 -6 5 -15 -7 -8
-10 -15 -14 -15 -9 0 6 -4 4 -9 -4 -5 -8 -11 -9 -15 -3 -3 5 1 15 9 22 12 10
15 10 15 -1 1 -8 7 -3 15 11 8 14 14 19 15 13 0 -7 5 -13 12 -13 9 0 9 3 0 12
-9 9 -7 17 9 34 21 23 14 39 -11 23 -11 -6 -12 -9 -2 -9 7 0 10 -5 7 -10 -4
-6 -9 -8 -13 -6 -4 2 -16 -2 -27 -10 -10 -8 -13 -14 -7 -14 21 0 13 -16 -8
-17 -13 -1 -18 2 -13 10 4 7 0 6 -10 -2 -18 -15 -23 -26 -7 -16 6 3 10 2 10
-2 0 -5 -9 -14 -20 -21 -11 -7 -20 -8 -20 -4 0 5 -7 9 -16 9 -15 0 -14 -2 1
-13 10 -8 21 -11 26 -9 4 3 9 -1 12 -7 2 -7 8 -9 13 -5 5 4 2 12 -6 17 -9 6
-10 10 -3 10 7 0 17 -8 22 -17 6 -10 11 -12 11 -5 0 13 30 17 30 4 0 -14 -57
-31 -68 -20 -14 14 -32 1 -25 -17 3 -8 0 -15 -5 -15 -6 0 -9 9 -7 20 5 23 -7
26 -25 6 -6 -8 -19 -12 -27 -9 -13 5 -15 2 -11 -15 4 -12 2 -24 -3 -27 -4 -3
-5 -13 -2 -23 6 -15 5 -15 -10 -3 -18 14 -24 37 -8 26 5 -3 12 -1 16 4 3 6 -3
8 -15 6 -22 -4 -23 -4 -14 20 4 10 9 13 13 6 4 -6 11 -3 19 9 7 12 8 21 2 25
-6 4 -9 1 -8 -6 2 -8 -7 -14 -22 -14 -34 0 -50 -12 -44 -33 5 -14 4 -15 -5 -2
-6 8 -11 18 -11 22 0 6 55 39 62 38 12 -3 68 24 68 32 0 6 7 8 15 4 8 -3 15 0
15 7 0 8 4 6 10 -3 9 -13 10 -13 11 0 1 8 1 19 0 23 -1 5 3 6 8 3 5 -3 14 1
21 9 7 8 19 15 26 15 8 0 14 5 14 10 0 6 15 19 33 30 17 11 28 20 23 20 -6 0
7 16 28 35 21 19 40 35 42 35 2 0 8 -10 14 -22z m-397 -243 c4 -8 1 -17 -5
-21 -7 -5 -8 -2 -3 6 6 9 4 11 -5 5 -9 -6 -11 -4 -4 6 5 9 -2 8 -20 -5 -16
-10 -25 -12 -21 -5 5 8 4 10 -4 5 -6 -4 -9 -11 -6 -16 3 -5 1 -11 -5 -15 -5
-3 -10 1 -10 9 0 9 0 19 0 23 0 4 11 8 25 9 14 0 28 4 32 7 10 11 20 8 26 -8z
m54 -15 c0 -39 -43 -82 -58 -60 -8 11 -12 12 -16 3 -2 -7 -11 -13 -18 -13 -7
0 -15 -5 -17 -11 -2 -7 -9 -5 -18 6 -12 14 -12 16 1 13 14 -3 19 3 19 22 0 6
-10 2 -22 -10 -25 -23 -46 -27 -28 -5 7 8 11 15 9 16 -2 0 -13 2 -23 4 -10 2
-23 10 -28 17 -8 10 -9 9 -5 -4 7 -20 -16 -31 -32 -15 -7 7 -12 8 -11 2 6 -30
-1 -36 -18 -15 -11 14 -24 20 -31 16 -8 -6 -9 -12 -2 -20 6 -7 8 -16 4 -19 -3
-4 0 -7 8 -8 8 0 6 -4 -6 -9 -15 -6 -27 -1 -46 17 -21 19 -28 21 -32 10 -3 -8
0 -20 6 -26 19 -19 1 -22 -36 -6 -20 8 -40 15 -44 14 -4 0 -10 7 -13 17 -6 17
-7 17 -13 0 -7 -18 -27 -13 -27 7 0 7 4 6 10 -3 5 -8 10 -10 10 -4 0 5 7 19
15 30 15 19 15 19 9 -1 -5 -19 -5 -19 9 -2 15 18 16 18 26 -2 14 -25 14 -41 1
-21 -6 9 -10 10 -10 3 0 -7 9 -17 19 -23 18 -9 19 -8 11 19 -6 22 -5 31 6 35
9 3 12 1 9 -4 -3 -6 1 -10 10 -10 9 0 14 4 11 8 -3 5 9 8 27 7 18 -1 38 2 45
8 8 6 12 5 12 -4 0 -11 2 -11 10 1 9 13 10 13 10 0 0 -13 1 -13 10 0 6 10 10
11 10 3 0 -7 5 -13 11 -13 5 0 7 5 4 10 -6 10 -2 12 33 13 9 1 20 6 24 12 7 9
10 0 7 -21 -2 -20 28 -21 48 -2 15 14 27 18 35 12 20 -14 53 -11 54 6 3 27 4
30 12 30 5 0 9 -13 9 -30z m-737 -23 c0 12 17 12 35 1 6 -3 27 -4 47 -3 21 2
36 -1 33 -5 -2 -4 -16 -6 -30 -5 -14 2 -23 -1 -20 -5 3 -5 -4 -7 -15 -5 -11 2
-18 0 -15 -6 4 -5 11 -6 17 -3 6 4 8 2 4 -4 -9 -15 13 -27 27 -13 8 8 15 7 27
-4 19 -17 50 -10 50 11 0 8 5 14 10 14 17 0 11 -15 -14 -39 -15 -14 -26 -19
-30 -12 -4 6 -20 9 -36 7 -22 -2 -33 3 -45 20 -12 18 -22 23 -41 20 -17 -3
-24 -1 -21 7 2 7 0 21 -5 32 -9 20 -9 20 6 1 9 -11 16 -15 16 -9z m201 -10
c11 3 19 0 19 -6 0 -7 -4 -10 -8 -7 -4 2 -8 -4 -8 -15 0 -19 1 -19 13 -3 7 10
13 21 13 26 0 4 7 8 15 8 8 0 15 -5 15 -11 0 -5 -4 -8 -9 -5 -5 3 -16 -5 -25
-19 -16 -25 -49 -25 -40 0 10 25 -18 28 -37 4 -17 -23 -18 -23 -37 -6 -13 12
-22 15 -27 8 -3 -6 -11 -11 -17 -11 -6 0 -6 6 2 15 7 9 20 13 28 10 8 -3 21 0
28 6 11 9 14 9 14 0 0 -7 5 -9 10 -6 6 4 7 11 4 17 -5 7 -1 7 11 1 10 -6 26
-8 36 -6z m364 -27 c-10 -11 -11 -20 -4 -30 9 -12 10 -11 5 4 -6 16 -4 17 9 6
14 -11 13 -14 -2 -26 -15 -11 -19 -10 -27 7 -5 11 -15 18 -22 15 -12 -5 -29
22 -19 32 3 3 5 0 5 -7 0 -9 3 -9 14 1 7 8 23 14 34 14 19 0 19 -2 7 -16z"/>
<path d="M4025 3561 c-3 -5 -2 -12 3 -15 5 -3 9 1 9 9 0 17 -3 19 -12 6z"/>
<path d="M3910 3540 c0 -5 0 -13 1 -16 0 -4 -5 -10 -12 -15 -10 -6 -10 -10 0
-23 11 -13 15 -14 35 -1 13 8 26 12 29 8 4 -3 7 -1 7 5 0 7 -7 12 -17 12 -9 0
-13 3 -10 7 8 7 -11 33 -24 33 -5 0 -9 -4 -9 -10z m26 -23 c-3 -21 -17 -38
-27 -31 -5 3 -6 11 -2 17 4 7 8 15 9 20 1 4 2 10 3 13 2 11 19 -6 17 -19z"/>
<path d="M4497 2937 c-3 -8 1 -14 8 -14 7 0 11 6 8 14 -3 7 -6 13 -8 13 -2 0
-5 -6 -8 -13z"/>
<path d="M4147 1203 c3 -7 9 -10 14 -7 14 8 11 21 -5 21 -8 0 -12 -6 -9 -14z"/>
<path d="M4054 1125 c-4 -8 -9 -13 -13 -10 -4 2 -8 -2 -8 -10 0 -8 4 -12 9 -9
10 7 30 44 23 44 -3 0 -8 -7 -11 -15z"/>
<path d="M3844 972 c-6 -4 -11 -15 -11 -25 0 -16 2 -16 18 -1 10 9 16 21 13
25 -6 11 -6 11 -20 1z"/>
<path d="M3586 878 c3 -5 10 -6 15 -3 13 9 11 12 -6 12 -8 0 -12 -4 -9 -9z"/>
<path d="M3665 881 c-7 -12 12 -24 45 -28 18 -1 30 5 39 20 13 19 12 21 -1 10
-8 -7 -19 -9 -23 -5 -5 4 -5 1 -1 -5 10 -17 -5 -16 -31 2 -13 9 -24 11 -28 6z"/>
<path d="M3414 859 c-6 -10 18 -26 38 -26 12 0 15 4 8 12 -5 7 -8 14 -5 16 2
3 -5 5 -16 5 -11 0 -22 -3 -25 -7z m31 -17 c-3 -3 -11 0 -18 7 -9 10 -8 11 6
5 10 -3 15 -9 12 -12z"/>
<path d="M3325 849 c-4 -6 -5 -12 -2 -15 2 -3 7 2 10 11 7 17 1 20 -8 4z"/>
<path d="M3039 863 c-13 -16 -12 -17 4 -4 16 13 21 21 13 21 -2 0 -10 -8 -17
-17z"/>
<path d="M454 3763 c3 -17 -1 -23 -15 -23 -13 0 -17 5 -13 18 5 14 4 14 -4 2
-13 -18 -6 -30 18 -30 24 0 30 10 19 35 -9 18 -9 18 -5 -2z"/>
<path d="M513 3759 c-2 -23 3 -25 10 -4 4 8 3 16 -1 19 -4 3 -9 -4 -9 -15z"/>
<path d="M673 3759 c-2 -23 3 -25 10 -4 4 8 3 16 -1 19 -4 3 -9 -4 -9 -15z"/>
<path d="M833 3759 c-2 -23 3 -25 10 -4 4 8 3 16 -1 19 -4 3 -9 -4 -9 -15z"/>
<path d="M993 3759 c-2 -23 3 -25 10 -4 4 8 3 16 -1 19 -4 3 -9 -4 -9 -15z"/>
<path d="M1153 3759 c-2 -23 3 -25 10 -4 4 8 3 16 -1 19 -4 3 -9 -4 -9 -15z"/>
<path d="M1366 3763 c-6 -14 -5 -15 5 -6 7 7 10 15 7 18 -3 3 -9 -2 -12 -12z"/>
<path d="M1750 3770 c0 -5 5 -10 11 -10 5 0 7 5 4 10 -3 6 -8 10 -11 10 -2 0
-4 -4 -4 -10z"/>
<path d="M1850 3771 c0 -7 -4 -10 -9 -7 -12 8 -8 -25 6 -50 12 -21 54 -28 52
-9 -1 15 -18 42 -19 30 0 -6 5 -16 11 -22 9 -9 7 -12 -9 -10 -21 1 -41 27 -22
27 6 0 10 5 10 11 0 8 -5 8 -15 -1 -18 -15 -20 1 -3 18 6 6 9 15 5 19 -4 3 -7
1 -7 -6z"/>
<path d="M1879 3768 c15 -21 31 -23 31 -6 0 6 -3 8 -7 5 -3 -4 -13 -1 -22 6
-14 11 -14 10 -2 -5z"/>
<path d="M1994 3772 c3 -5 0 -13 -6 -15 -10 -4 -9 -6 1 -6 11 -1 10 -6 -4 -21
-15 -17 -16 -23 -5 -33 10 -10 12 -9 7 4 -3 9 0 22 6 28 17 17 31 13 17 -4 -7
-9 -11 -17 -9 -20 3 -2 10 5 17 16 10 16 10 20 -3 25 -8 3 -13 10 -10 14 3 5
0 12 -6 16 -7 4 -9 3 -5 -4z"/>
<path d="M2079 3778 c-5 -19 -8 -50 -4 -46 7 7 15 48 9 48 -2 0 -4 -1 -5 -2z"/>
<path d="M2190 3771 c0 -7 -4 -9 -10 -6 -6 4 -7 -1 -3 -12 6 -16 5 -17 -13 -3
-12 9 -15 9 -7 1 6 -7 9 -20 6 -27 -3 -8 0 -14 6 -14 6 0 10 3 9 8 -1 4 4 18
11 30 7 13 10 26 7 30 -3 3 -6 0 -6 -7z"/>
<path d="M3070 3770 c-8 -5 -10 -10 -5 -10 6 0 17 5 25 10 8 5 11 10 5 10 -5
0 -17 -5 -25 -10z"/>
<path d="M3291 3763 c-1 -12 4 -25 9 -28 12 -7 12 2 0 30 -8 19 -9 19 -9 -2z"/>
<path d="M344 3751 c0 -11 5 -17 13 -14 10 4 11 9 2 19 -15 18 -15 18 -15 -5z"/>
<path d="M579 3763 c-1 -5 -1 -11 0 -15 0 -5 -8 -8 -20 -8 -13 0 -18 4 -13 12
5 7 3 8 -5 3 -17 -10 1 -28 24 -23 15 2 32 38 19 38 -2 0 -5 -3 -5 -7z"/>
<path d="M615 3761 c-4 -7 0 -8 11 -4 12 4 15 3 10 -5 -4 -7 -2 -12 4 -12 14
0 8 22 -7 27 -6 2 -14 -1 -18 -6z"/>
<path d="M739 3763 c-1 -5 -1 -11 0 -15 0 -5 -8 -8 -20 -8 -13 0 -18 4 -13 12
5 7 3 8 -5 3 -17 -10 1 -28 24 -23 15 2 32 38 19 38 -2 0 -5 -3 -5 -7z"/>
<path d="M775 3761 c-4 -7 0 -8 11 -4 12 4 15 3 10 -5 -4 -7 -2 -12 4 -12 14
0 8 22 -7 27 -6 2 -14 -1 -18 -6z"/>
<path d="M899 3763 c-1 -5 -1 -11 0 -15 0 -5 -8 -8 -20 -8 -13 0 -18 4 -13 12
5 7 3 8 -5 3 -17 -10 1 -28 24 -23 15 2 32 38 19 38 -2 0 -5 -3 -5 -7z"/>
<path d="M935 3761 c-4 -7 0 -8 11 -4 12 4 15 3 10 -5 -4 -7 -2 -12 4 -12 14
0 8 22 -7 27 -6 2 -14 -1 -18 -6z"/>
<path d="M1059 3763 c-1 -5 -1 -11 0 -15 0 -5 -8 -8 -20 -8 -13 0 -18 4 -13
12 5 7 3 8 -5 3 -17 -10 1 -28 24 -23 15 2 32 38 19 38 -2 0 -5 -3 -5 -7z"/>
<path d="M1095 3761 c-4 -7 0 -8 11 -4 12 4 15 3 10 -5 -4 -7 -2 -12 4 -12 14
0 8 22 -7 27 -6 2 -14 -1 -18 -6z"/>
<path d="M1219 3763 c-1 -5 -1 -11 0 -15 0 -5 -8 -8 -20 -8 -13 0 -18 4 -13
12 5 7 3 8 -5 3 -17 -10 1 -28 24 -23 15 2 32 38 19 38 -2 0 -5 -3 -5 -7z"/>
<path d="M1272 3746 c16 -31 21 -34 14 -9 -6 18 -4 22 8 17 9 -3 16 -2 16 3 0
5 -11 9 -24 9 -22 0 -23 -3 -14 -20z"/>
<path d="M1340 3756 c0 -9 -4 -15 -9 -12 -5 3 -16 -5 -25 -19 -9 -14 -15 -26
-14 -26 22 -10 50 -3 59 15 9 18 8 19 -3 6 -7 -8 -21 -16 -31 -18 -15 -3 -16
0 -5 17 6 11 16 17 20 15 10 -6 23 24 14 33 -3 4 -6 -1 -6 -11z"/>
<path d="M1431 3757 c44 -20 62 -39 47 -48 -7 -4 -9 -11 -5 -16 5 -4 12 -1 17
7 12 18 -23 55 -60 64 l-25 6 26 -13z"/>
<path d="M1491 3748 c6 -10 13 -16 18 -14 4 3 13 -5 20 -16 11 -18 11 -20 -3
-15 -8 3 -18 2 -20 -2 -3 -5 7 -8 22 -7 15 0 26 -4 25 -10 -1 -6 5 -11 13 -11
8 0 14 1 14 3 0 8 -67 68 -74 66 -5 -2 -6 3 -3 11 3 7 -1 14 -8 14 -10 0 -11
-5 -4 -19z"/>
<path d="M1526 3758 c3 -4 9 -8 15 -8 5 0 9 4 9 8 0 5 -7 9 -15 9 -8 0 -12 -4
-9 -9z"/>
<path d="M1580 3757 c0 -9 -6 -16 -12 -14 -7 1 -13 -4 -13 -12 0 -8 6 -15 13
-17 7 -1 8 0 2 3 -5 2 -10 9 -10 14 0 6 5 7 10 4 11 -7 26 22 16 32 -3 4 -6
-1 -6 -10z"/>
<path d="M1610 3753 c5 -12 16 -25 23 -29 6 -4 9 -4 5 1 -4 4 -2 15 4 24 10
13 10 14 -2 4 -11 -10 -16 -9 -27 5 -13 15 -13 15 -3 -5z"/>
<path d="M1710 3756 c7 -7 13 -7 20 0 6 6 3 10 -10 10 -13 0 -16 -4 -10 -10z"/>
<path d="M1788 3758 c5 -5 16 -8 23 -6 8 3 3 7 -10 11 -17 4 -21 3 -13 -5z"/>
<path d="M1937 3753 c3 -8 0 -13 -8 -11 -8 2 -14 -3 -14 -11 0 -8 6 -15 13
-17 7 -1 8 0 2 3 -5 2 -10 9 -10 14 0 6 4 8 9 4 6 -3 14 3 20 13 7 14 6 19 -4
19 -7 0 -11 -7 -8 -14z"/>
<path d="M2028 3758 c5 -5 16 -8 23 -6 8 3 3 7 -10 11 -17 4 -21 3 -13 -5z"/>
<path d="M2108 3763 c7 -3 16 -2 19 1 4 3 -2 6 -13 5 -11 0 -14 -3 -6 -6z"/>
<path d="M2230 3760 c-13 -8 -12 -10 3 -10 9 0 17 5 17 10 0 12 -1 12 -20 0z"/>
<path d="M2390 3760 c0 -6 7 -10 15 -10 8 0 15 2 15 4 0 2 -7 6 -15 10 -8 3
-15 1 -15 -4z"/>
<path d="M2470 3760 c-13 -8 -12 -10 3 -10 9 0 17 5 17 10 0 12 -1 12 -20 0z"/>
<path d="M2630 3760 c0 -6 7 -10 15 -10 8 0 15 2 15 4 0 2 -7 6 -15 10 -8 3
-15 1 -15 -4z"/>
<path d="M2720 3761 c0 -7 -5 -9 -12 -5 -7 5 -8 3 -3 -5 5 -9 10 -10 18 -2 6
6 8 14 4 18 -4 3 -7 1 -7 -6z"/>
<path d="M2802 3756 c7 -8 15 -12 17 -11 5 6 -10 25 -20 25 -5 0 -4 -6 3 -14z"/>
<path d="M2839 3753 c-13 -17 -13 -17 6 -3 11 8 22 16 24 17 2 2 0 3 -6 3 -6
0 -17 -8 -24 -17z"/>
<path d="M2933 3746 c6 -12 10 -24 9 -28 -1 -5 3 -8 9 -8 6 0 9 7 6 15 -4 8
-2 17 3 20 6 4 10 11 10 18 0 6 -7 2 -16 -9 -11 -13 -14 -14 -11 -3 3 9 -1 16
-8 16 -11 0 -12 -5 -2 -21z"/>
<path d="M3100 3760 c-8 -5 -10 -10 -5 -10 6 0 17 5 25 10 8 5 11 10 5 10 -5
0 -17 -5 -25 -10z"/>
<path d="M3144 3762 c3 -5 0 -12 -6 -15 -7 -2 -10 -7 -7 -11 3 -4 12 0 18 8 9
11 9 16 0 22 -7 4 -9 3 -5 -4z"/>
<path d="M3170 3756 c0 -8 4 -17 9 -21 6 -3 9 4 8 15 -1 23 -17 28 -17 6z"/>
<path d="M3223 3748 c11 -10 23 -15 28 -12 5 3 9 -3 9 -13 0 -11 -8 -19 -19
-20 -14 -1 -18 3 -14 15 4 14 3 14 -5 2 -14 -19 -6 -30 20 -26 25 3 33 19 22
44 -4 9 -6 21 -5 26 1 5 -5 4 -13 -4 -10 -7 -21 -9 -29 -4 -7 5 -4 1 6 -8z"/>
<path d="M2264 3745 c-10 -8 -14 -14 -9 -14 6 0 19 6 29 14 11 8 15 15 10 15
-6 0 -19 -7 -30 -15z"/>
<path d="M2355 3747 c26 -16 29 -46 4 -44 -21 1 -25 12 -9 20 6 3 5 4 -2 3 -7
-2 -13 -9 -13 -16 0 -21 36 -21 63 1 14 10 20 19 15 19 -5 0 -15 -6 -22 -12
-11 -11 -13 -10 -8 4 4 12 0 21 -13 28 -26 14 -39 12 -15 -3z"/>
<path d="M2507 3748 c-13 -11 -14 -16 -4 -29 11 -15 14 -15 27 -1 13 14 12 15
-2 10 -26 -10 -31 5 -6 19 13 7 18 12 12 13 -5 0 -18 -6 -27 -12z"/>
<path d="M2595 3747 c26 -16 29 -46 4 -44 -21 1 -25 12 -9 20 6 3 5 4 -2 3
-23 -5 -14 -31 11 -31 30 0 37 41 10 56 -26 13 -38 10 -14 -4z"/>
<path d="M2748 3749 c-17 -9 -17 -12 -2 -34 9 -14 20 -23 24 -20 5 3 11 -5 13
-17 5 -20 5 -20 3 2 -1 14 -6 24 -12 23 -5 -1 -15 7 -22 18 -14 21 -3 25 18 7
12 -11 12 -10 2 4 -10 13 -10 17 0 21 7 3 9 6 3 6 -5 0 -18 -4 -27 -10z"/>
<path d="M2867 3749 c-9 -6 -15 -14 -12 -19 3 -5 -4 -14 -15 -20 -18 -10 -31
2 -12 13 4 2 1 2 -5 1 -7 -2 -17 5 -22 14 -9 15 -10 14 -8 -5 0 -12 4 -20 8
-17 4 2 10 -3 13 -12 6 -15 8 -15 30 0 22 14 25 14 30 0 3 -9 11 -12 18 -8 8
5 9 2 5 -10 -5 -11 -3 -15 5 -10 7 5 9 2 6 -7 -4 -9 1 -15 12 -15 16 0 16 3
-3 28 -11 15 -23 25 -27 23 -3 -2 -12 6 -19 17 -11 18 -11 20 4 15 9 -4 14 -3
10 2 -3 5 1 12 7 14 7 3 9 6 3 6 -5 0 -18 -4 -28 -10z"/>
<path d="M1373 3734 c-9 -23 4 -41 28 -40 18 1 23 7 23 26 0 19 -5 25 -23 26
-12 1 -25 -5 -28 -12z m43 -14 c0 -12 -7 -18 -18 -17 -10 1 -18 8 -18 17 0 9
8 16 18 17 11 1 18 -5 18 -17z"/>
<path d="M1657 3742 c-3 -4 -3 -15 -1 -25 1 -12 -2 -17 -11 -13 -8 3 -17 1
-19 -3 -3 -5 5 -8 17 -7 16 1 22 7 21 23 -1 15 4 21 17 20 21 -1 25 -12 9 -20
-6 -3 -5 -4 2 -3 22 4 15 29 -9 32 -12 2 -24 0 -26 -4z"/>
<path d="M1733 3734 c-9 -23 4 -41 28 -40 18 1 23 7 23 26 0 19 -5 25 -23 26
-12 1 -25 -5 -28 -12z m43 -14 c0 -12 -7 -18 -18 -17 -10 1 -18 8 -18 17 0 9
8 16 18 17 11 1 18 -5 18 -17z"/>
<path d="M1956 3735 c-9 -26 -7 -32 5 -12 6 10 9 21 6 23 -2 3 -7 -2 -11 -11z"/>
<path d="M2093 3734 c-9 -23 4 -41 28 -40 18 1 23 7 23 26 0 19 -5 25 -23 26
-12 1 -25 -5 -28 -12z m43 -14 c0 -12 -7 -18 -18 -17 -10 1 -18 8 -18 17 0 9
8 16 18 17 11 1 18 -5 18 -17z"/>
<path d="M2196 3733 c-6 -14 -5 -15 5 -6 7 7 10 15 7 18 -3 3 -9 -2 -12 -12z"/>
<path d="M2310 3740 c0 -5 5 -10 10 -10 6 0 10 5 10 10 0 6 -4 10 -10 10 -5 0
-10 -4 -10 -10z"/>
<path d="M2430 3740 c0 -5 5 -10 10 -10 6 0 10 5 10 10 0 6 -4 10 -10 10 -5 0
-10 -4 -10 -10z"/>
<path d="M2550 3740 c0 -5 5 -10 10 -10 6 0 10 5 10 10 0 6 -4 10 -10 10 -5 0
-10 -4 -10 -10z"/>
<path d="M2670 3740 c0 -5 5 -10 10 -10 6 0 10 5 10 10 0 6 -4 10 -10 10 -5 0
-10 -4 -10 -10z"/>
<path d="M2905 3740 c-7 -12 2 -30 16 -30 5 0 9 5 9 11 0 5 -5 7 -12 3 -8 -5
-9 -2 -5 9 7 19 2 23 -8 7z"/>
<path d="M3054 3736 c-9 -23 0 -39 21 -42 24 -4 45 13 44 35 0 12 -2 11 -9 -4
-5 -11 -9 -15 -9 -8 -1 7 -10 17 -21 23 -16 9 -22 8 -26 -4z m40 -21 c3 -9 -2
-13 -15 -12 -11 1 -19 9 -19 19 0 20 25 15 34 -7z"/>
<path d="M317 3733 c-10 -9 -9 -23 1 -23 5 0 9 7 9 15 0 17 -1 18 -10 8z"/>
<path d="M585 3723 c-19 -13 -18 -14 9 -9 34 6 41 12 24 19 -8 2 -23 -2 -33
-10z"/>
<path d="M745 3723 c-19 -13 -18 -14 9 -9 34 6 41 12 24 19 -8 2 -23 -2 -33
-10z"/>
<path d="M905 3723 c-19 -13 -18 -14 9 -9 34 6 41 12 24 19 -8 2 -23 -2 -33
-10z"/>
<path d="M1065 3723 c-19 -13 -18 -14 9 -9 34 6 41 12 24 19 -8 2 -23 -2 -33
-10z"/>
<path d="M3178 3700 c-22 -30 -25 -39 -13 -43 10 -4 12 -1 8 10 -4 11 -2 14 5
9 8 -5 10 -1 5 11 -6 17 -5 17 14 1 11 -10 24 -18 29 -18 4 0 -2 7 -14 16 -18
13 -21 19 -11 30 6 8 10 16 8 18 -2 3 -16 -13 -31 -34z"/>
<path d="M400 3720 c8 -5 20 -10 25 -10 6 0 3 5 -5 10 -8 5 -19 10 -25 10 -5
0 -3 -5 5 -10z"/>
<path d="M491 3725 c4 -3 19 -8 35 -11 16 -3 26 -2 23 1 -4 3 -19 8 -35 11
-16 3 -26 2 -23 -1z"/>
<path d="M651 3725 c4 -3 19 -8 35 -11 16 -3 26 -2 23 1 -4 3 -19 8 -35 11
-16 3 -26 2 -23 -1z"/>
<path d="M811 3725 c4 -3 19 -8 35 -11 16 -3 26 -2 23 1 -4 3 -19 8 -35 11
-16 3 -26 2 -23 -1z"/>
<path d="M971 3725 c4 -3 19 -8 35 -11 16 -3 26 -2 23 1 -4 3 -19 8 -35 11
-16 3 -26 2 -23 -1z"/>
<path d="M1140 3719 c8 -5 24 -14 35 -20 18 -9 19 -9 3 4 -10 8 -16 16 -13 18
2 3 -6 6 -18 6 -17 2 -19 0 -7 -8z"/>
<path d="M1217 3718 c-7 -5 0 -6 17 -4 16 3 31 7 33 10 8 8 -37 2 -50 -6z"/>
<path d="M1440 3720 c0 -5 5 -10 10 -10 6 0 10 5 10 10 0 6 -4 10 -10 10 -5 0
-10 -4 -10 -10z"/>
<path d="M1599 3721 c11 -7 11 -9 0 -13 -8 -3 -10 -9 -6 -14 9 -10 28 16 21
28 -3 4 -11 8 -17 8 -8 0 -7 -3 2 -9z"/>
<path d="M1800 3720 c0 -5 5 -10 10 -10 6 0 10 5 10 10 0 6 -4 10 -10 10 -5 0
-10 -4 -10 -10z"/>
<path d="M2034 3719 c-3 -6 -1 -16 5 -22 6 -6 11 -7 11 -3 0 5 8 -2 18 -14 14
-18 19 -19 19 -7 0 9 -4 14 -8 12 -4 -3 -10 2 -13 11 -3 8 -10 12 -16 9 -5 -3
-10 -2 -10 4 0 5 6 12 13 14 9 4 9 6 0 6 -6 1 -15 -4 -19 -10z"/>
<path d="M2215 3719 c-9 -13 0 -22 24 -24 10 -1 18 4 18 11 0 9 -5 10 -19 3
-11 -6 -18 -6 -18 0 0 5 6 12 13 14 9 4 9 6 0 6 -6 1 -15 -4 -18 -10z"/>
<path d="M2279 3728 c-1 -2 -3 -13 -4 -26 -2 -16 1 -20 8 -13 7 7 14 5 22 -6
10 -13 14 -13 20 -3 5 8 4 11 -2 7 -6 -4 -14 0 -17 9 -3 8 -10 12 -16 9 -5 -3
-10 -2 -10 4 0 5 6 12 13 14 10 4 10 6 0 6 -7 1 -14 0 -14 -1z"/>
<path d="M2470 3723 c5 -2 10 -9 10 -14 0 -6 -4 -8 -9 -4 -16 9 -35 -35 -21
-49 8 -8 9 -6 4 8 -5 13 -4 17 4 12 8 -5 10 -2 6 9 -4 10 -2 15 7 13 8 -2 14
3 14 11 0 8 -6 15 -13 17 -7 1 -8 0 -2 -3z"/>
<path d="M2640 3720 c0 -5 5 -10 10 -10 6 0 10 5 10 10 0 6 -4 10 -10 10 -5 0
-10 -4 -10 -10z"/>
<path d="M2712 3716 c7 -8 15 -12 17 -11 5 6 -10 25 -20 25 -5 0 -4 -6 3 -14z"/>
<path d="M3150 3720 c0 -5 5 -10 10 -10 6 0 10 5 10 10 0 6 -4 10 -10 10 -5 0
-10 -4 -10 -10z"/>
<path d="M2542 3712 c-9 -6 -10 -15 -2 -33 8 -19 9 -20 8 -4 -2 11 1 26 5 33
9 14 7 15 -11 4z"/>
<path d="M2675 3710 c-3 -6 -1 -18 5 -27 9 -15 10 -14 4 7 -6 22 -5 23 10 11
9 -7 16 -9 16 -3 0 14 -28 23 -35 12z"/>
<path d="M390 3701 c13 -9 8 -15 -11 -13 -3 1 -6 -6 -6 -14 0 -10 4 -11 10 -5
7 7 17 7 31 0 21 -10 21 -10 1 6 -11 9 -19 19 -17 23 2 3 -2 8 -10 10 -9 2 -8
0 2 -7z"/>
<path d="M455 3701 c-3 -5 0 -13 6 -17 8 -4 9 -3 5 4 -5 8 1 12 14 12 13 0 19
-4 14 -12 -4 -7 -3 -8 5 -4 16 10 4 26 -19 26 -10 0 -21 -4 -25 -9z"/>
<path d="M619 3708 c-6 -21 -5 -37 2 -32 5 3 7 10 4 15 -4 5 3 9 15 9 13 0 19
-4 14 -12 -4 -7 -3 -8 5 -4 16 10 4 26 -20 26 -10 0 -19 -1 -20 -2z"/>
<path d="M779 3708 c-6 -21 -5 -37 2 -32 5 3 7 10 4 15 -4 5 3 9 15 9 13 0 19
-4 14 -12 -4 -7 -3 -8 5 -4 16 10 4 26 -20 26 -10 0 -19 -1 -20 -2z"/>
<path d="M939 3708 c-6 -21 -5 -37 2 -32 5 3 7 10 4 15 -4 5 3 9 15 9 13 0 19
-4 14 -12 -4 -7 -3 -8 5 -4 16 10 4 26 -20 26 -10 0 -19 -1 -20 -2z"/>
<path d="M1099 3708 c-6 -26 -6 -37 2 -32 5 3 7 10 4 15 -4 5 3 9 15 9 12 0
19 -4 15 -9 -3 -5 -1 -12 4 -15 5 -4 8 2 7 11 -2 15 -44 33 -47 21z"/>
<path d="M1259 3708 c-6 -21 -5 -37 2 -32 5 3 7 9 4 14 -3 4 1 11 7 13 10 4
10 6 1 6 -7 1 -13 0 -14 -1z"/>
<path d="M1710 3703 c0 -6 8 -17 18 -24 16 -13 16 -13 2 6 -8 11 -16 22 -17
24 -2 2 -3 0 -3 -6z"/>
<path d="M1834 3681 c1 -17 5 -33 8 -36 3 -3 4 8 3 25 -1 17 -5 33 -8 36 -3 3
-5 -8 -3 -25z"/>
<path d="M2190 3705 c0 -5 5 -17 10 -25 5 -8 10 -10 10 -5 0 6 -5 17 -10 25
-5 8 -10 11 -10 5z"/>
<path d="M2394 3687 l-19 -22 24 20 c21 17 23 18 18 3 -3 -10 -3 -19 1 -22 4
-3 8 4 9 14 2 29 -12 32 -33 7z"/>
<path d="M3114 3688 l-19 -23 24 20 24 20 -7 -20 c-6 -16 -5 -18 5 -7 9 8 10
15 3 22 -7 7 -17 3 -30 -12z"/>
<path d="M335 3691 c-3 -5 -2 -12 3 -15 5 -3 9 1 9 9 0 17 -3 19 -12 6z"/>
<path d="M430 3691 c0 -6 4 -13 10 -16 6 -3 7 1 4 9 -7 18 -14 21 -14 7z"/>
<path d="M517 3687 c-3 -8 -2 -20 3 -26 5 -9 8 -4 8 13 0 29 -3 32 -11 13z"/>
<path d="M547 3687 c-3 -7 3 -13 13 -13 10 0 16 6 13 13 -3 7 -9 13 -13 13 -4
0 -10 -6 -13 -13z"/>
<path d="M677 3687 c-3 -8 -2 -20 3 -26 5 -9 8 -4 8 13 0 29 -3 32 -11 13z"/>
<path d="M707 3687 c-3 -7 3 -13 13 -13 10 0 16 6 13 13 -3 7 -9 13 -13 13 -4
0 -10 -6 -13 -13z"/>
<path d="M837 3687 c-3 -8 -2 -20 3 -26 5 -9 8 -4 8 13 0 29 -3 32 -11 13z"/>
<path d="M867 3687 c-3 -7 3 -13 13 -13 10 0 16 6 13 13 -3 7 -9 13 -13 13 -4
0 -10 -6 -13 -13z"/>
<path d="M997 3687 c-3 -8 -2 -20 3 -26 5 -9 8 -4 8 13 0 29 -3 32 -11 13z"/>
<path d="M1027 3687 c-3 -7 3 -13 13 -13 10 0 16 6 13 13 -3 7 -9 13 -13 13
-4 0 -10 -6 -13 -13z"/>
<path d="M1193 3685 c-10 -11 -9 -13 6 -12 11 1 17 7 14 14 -6 16 -5 16 -20
-2z"/>
<path d="M1907 3681 c-10 -14 -10 -14 4 -4 9 7 18 10 21 7 3 -3 8 -1 12 4 9
16 -24 9 -37 -7z"/>
<path d="M2930 3691 c0 -6 4 -13 10 -16 6 -3 7 1 4 9 -7 18 -14 21 -14 7z"/>
<path d="M1287 3679 c7 -7 15 -10 18 -7 3 3 -2 9 -12 12 -14 6 -15 5 -6 -5z"/>
<path d="M1345 3679 c-11 -16 -1 -19 13 -3 7 8 8 14 3 14 -5 0 -13 -5 -16 -11z"/>
<path d="M1427 3683 c-3 -5 5 -8 18 -8 13 0 21 3 18 8 -2 4 -10 7 -18 7 -8 0
-16 -3 -18 -7z"/>
<path d="M1670 3686 c0 -2 9 -6 20 -9 11 -3 18 -1 14 4 -5 9 -34 13 -34 5z"/>
<path d="M1798 3683 c7 -3 16 -2 19 1 4 3 -2 6 -13 5 -11 0 -14 -3 -6 -6z"/>
<path d="M2000 3680 c-8 -5 -10 -10 -5 -10 6 0 17 5 25 10 8 5 11 10 5 10 -5
0 -17 -5 -25 -10z"/>
<path d="M2158 3683 c7 -3 16 -2 19 1 4 3 -2 6 -13 5 -11 0 -14 -3 -6 -6z"/>
<path d="M2490 3680 c0 -5 5 -10 10 -10 6 0 10 5 10 10 0 6 -4 10 -10 10 -5 0
-10 -4 -10 -10z"/>
<path d="M2638 3683 c7 -3 16 -2 19 1 4 3 -2 6 -13 5 -11 0 -14 -3 -6 -6z"/>
<path d="M2720 3680 c-12 -7 -10 -9 8 -7 12 0 22 5 22 9 0 11 -12 10 -30 -2z"/>
<path d="M2850 3680 c0 -5 5 -10 10 -10 6 0 10 5 10 10 0 6 -4 10 -10 10 -5 0
-10 -4 -10 -10z"/>
<path d="M1388 3673 c7 -3 16 -2 19 1 4 3 -2 6 -13 5 -11 0 -14 -3 -6 -6z"/>
<path d="M1507 3667 c-3 -8 1 -14 8 -14 7 0 11 6 8 14 -3 7 -6 13 -8 13 -2 0
-5 -6 -8 -13z"/>
<path d="M1628 3673 c7 -3 16 -2 19 1 4 3 -2 6 -13 5 -11 0 -14 -3 -6 -6z"/>
<path d="M1747 3666 c-4 -10 1 -12 14 -9 23 6 24 9 5 16 -8 3 -17 0 -19 -7z"/>
<path d="M1868 3673 c7 -3 16 -2 19 1 4 3 -2 6 -13 5 -11 0 -14 -3 -6 -6z"/>
<path d="M2108 3673 c7 -3 16 -2 19 1 4 3 -2 6 -13 5 -11 0 -14 -3 -6 -6z"/>
<path d="M2226 3664 c-5 -14 -4 -15 9 -4 17 14 19 20 6 20 -5 0 -12 -7 -15
-16z"/>
<path d="M2336 3671 c-4 -5 3 -7 14 -4 23 6 26 13 6 13 -8 0 -17 -4 -20 -9z"/>
<path d="M2588 3673 c7 -3 16 -2 19 1 4 3 -2 6 -13 5 -11 0 -14 -3 -6 -6z"/>
<path d="M2815 3670 c-3 -6 1 -7 9 -4 18 7 21 14 7 14 -6 0 -13 -4 -16 -10z"/>
<path d="M2998 3673 c7 -3 16 -2 19 1 4 3 -2 6 -13 5 -11 0 -14 -3 -6 -6z"/>
<path d="M3068 3673 c7 -3 16 -2 19 1 4 3 -2 6 -13 5 -11 0 -14 -3 -6 -6z"/>
<path d="M455 3661 c-3 -5 -2 -12 3 -15 5 -3 9 1 9 9 0 17 -3 19 -12 6z"/>
<path d="M1436 3662 c-3 -5 1 -9 9 -9 8 0 12 4 9 9 -3 4 -7 8 -9 8 -2 0 -6 -4
-9 -8z"/>
<path d="M1668 3652 c4 -10 7 -12 10 -4 2 7 9 9 15 5 7 -3 8 -2 4 2 -14 16
-36 14 -29 -3z"/>
<path d="M2028 3663 c7 -3 16 -2 19 1 4 3 -2 6 -13 5 -11 0 -14 -3 -6 -6z"/>
<path d="M2146 3657 c3 -10 9 -15 12 -12 3 3 0 11 -7 18 -10 9 -11 8 -5 -6z"/>
<path d="M2268 3663 c7 -3 16 -2 19 1 4 3 -2 6 -13 5 -11 0 -14 -3 -6 -6z"/>
<path d="M2515 3661 c-3 -5 -2 -12 3 -15 5 -3 9 1 9 9 0 17 -3 19 -12 6z"/>
<path d="M2626 3657 c3 -10 9 -15 12 -12 3 3 0 11 -7 18 -10 9 -11 8 -5 -6z"/>
<path d="M2755 3661 c-3 -5 -2 -12 3 -15 5 -3 9 1 9 9 0 17 -3 19 -12 6z"/>
<path d="M1257 3649 c7 -7 15 -10 18 -7 3 3 -2 9 -12 12 -14 6 -15 5 -6 -5z"/>
<path d="M3110 3650 c0 -5 5 -10 11 -10 5 0 7 5 4 10 -3 6 -8 10 -11 10 -2 0
-4 -4 -4 -10z"/>
<path d="M4796 3638 c3 -5 10 -6 15 -3 13 9 11 12 -6 12 -8 0 -12 -4 -9 -9z"/>
<path d="M4799 3613 c-1 -5 -1 -12 0 -17 1 -5 -6 -5 -16 -2 -14 6 -16 5 -5 -5
9 -10 15 -10 24 -1 7 7 8 12 3 12 -6 0 -3 5 5 10 10 6 11 10 3 10 -7 0 -14 -3
-14 -7z"/>
<path d="M4800 3531 l-25 -7 26 -5 c17 -4 26 -1 26 8 0 7 -1 13 -1 12 -1 -1
-12 -4 -26 -8z"/>
<path d="M4070 3519 c0 -5 5 -7 10 -4 6 3 10 8 10 11 0 2 -4 4 -10 4 -5 0 -10
-5 -10 -11z"/>
<path d="M4772 3504 c11 -11 21 -14 26 -9 4 6 6 9 3 8 -2 -1 -13 3 -25 9 -20
10 -20 10 -4 -8z"/>
<path d="M4736 3495 c-3 -9 0 -12 9 -9 9 4 12 -1 10 -13 -2 -10 -4 -25 -4 -33
-1 -12 -3 -13 -10 -1 -5 8 -11 9 -15 3 -10 -17 21 -21 41 -6 10 9 12 13 6 9
-18 -9 -16 12 1 22 11 6 9 12 -9 25 -19 15 -24 15 -29 3z"/>
<path d="M4866 3478 c3 -5 10 -6 15 -3 13 9 11 12 -6 12 -8 0 -12 -4 -9 -9z"/>
<path d="M3984 3455 c-3 -8 -4 -20 -2 -27 3 -7 7 -1 10 15 6 29 1 36 -8 12z"/>
<path d="M4030 3461 c0 -6 4 -13 10 -16 6 -3 7 1 4 9 -7 18 -14 21 -14 7z"/>
<path d="M4797 3463 c-10 -10 -8 -23 4 -23 5 0 8 4 5 9 -4 5 0 12 6 14 7 3 8
6 2 6 -6 1 -14 -2 -17 -6z"/>
<path d="M646 3441 c-19 -7 -19 -8 0 -13 13 -3 21 0 21 8 0 8 -1 14 -1 13 -1
0 -10 -4 -20 -8z"/>
<path d="M1856 3435 c-3 -8 0 -17 6 -21 6 -4 8 -3 4 4 -3 5 -1 12 6 14 8 3 9
6 1 11 -6 4 -13 0 -17 -8z"/>
<path d="M1900 3444 c0 -1 6 -7 14 -13 10 -9 15 -8 19 2 3 8 -3 13 -14 13 -11
0 -19 -1 -19 -2z"/>
<path d="M1960 3435 c-7 -9 -8 -15 -2 -15 5 0 12 7 16 15 3 8 4 15 2 15 -2 0
-9 -7 -16 -15z"/>
<path d="M2047 3441 c9 -11 7 -17 -9 -31 -17 -14 -18 -17 -5 -17 10 0 15 3 12
5 -3 3 2 10 11 17 14 10 14 12 -3 25 -13 10 -15 11 -6 1z"/>
<path d="M2085 3439 c-4 -6 -5 -12 -2 -15 2 -3 7 2 10 11 7 17 1 20 -8 4z"/>
<path d="M2120 3435 c-7 -9 -8 -15 -2 -15 5 0 12 7 16 15 3 8 4 15 2 15 -2 0
-9 -7 -16 -15z"/>
<path d="M2207 3441 c9 -11 7 -17 -9 -31 -17 -14 -18 -17 -5 -17 10 0 15 3 12
5 -3 3 2 10 11 17 14 10 14 12 -3 25 -13 10 -15 11 -6 1z"/>
<path d="M2850 3437 c0 -6 3 -7 7 -4 3 4 12 2 18 -3 9 -7 14 -7 18 2 3 8 -5
14 -19 14 -13 1 -24 -3 -24 -9z"/>
<path d="M2920 3435 c-7 -9 -8 -15 -2 -15 5 0 12 7 16 15 3 8 4 15 2 15 -2 0
-9 -7 -16 -15z"/>
<path d="M3007 3441 c9 -11 7 -17 -9 -31 -17 -14 -18 -17 -5 -17 10 0 15 3 12
5 -3 3 2 10 11 17 14 10 14 12 -3 25 -13 10 -15 11 -6 1z"/>
<path d="M3045 3439 c-4 -6 -5 -12 -2 -15 2 -3 7 2 10 11 7 17 1 20 -8 4z"/>
<path d="M3080 3435 c-7 -9 -8 -15 -2 -15 5 0 12 7 16 15 3 8 4 15 2 15 -2 0
-9 -7 -16 -15z"/>
<path d="M695 3431 c-3 -5 0 -13 6 -17 8 -5 9 -3 4 6 -6 9 -1 10 16 5 19 -5
21 -4 9 4 -19 13 -27 14 -35 2z"/>
<path d="M870 3430 c-9 -6 -10 -10 -3 -10 6 0 15 5 18 10 8 12 4 12 -15 0z"/>
<path d="M896 3423 c-6 -14 -5 -15 5 -6 7 7 10 15 7 18 -3 3 -9 -2 -12 -12z"/>
<path d="M955 3429 c-4 -6 -5 -12 -2 -15 2 -3 7 2 10 11 7 17 1 20 -8 4z"/>
<path d="M976 3423 c-6 -14 -5 -15 5 -6 7 7 10 15 7 18 -3 3 -9 -2 -12 -12z"/>
<path d="M1070 3430 c-9 -6 -10 -10 -3 -10 6 0 15 5 18 10 8 12 4 12 -15 0z"/>
<path d="M1096 3423 c-6 -14 -5 -15 5 -6 7 7 10 15 7 18 -3 3 -9 -2 -12 -12z"/>
<path d="M1255 3431 c-3 -5 0 -13 6 -17 8 -5 9 -3 4 6 -6 10 -4 12 9 7 10 -4
15 -3 11 3 -8 13 -22 13 -30 1z"/>
<path d="M1310 3430 c-9 -6 -10 -10 -3 -10 6 0 15 5 18 10 8 12 4 12 -15 0z"/>
<path d="M1336 3423 c-6 -14 -5 -15 5 -6 7 7 10 15 7 18 -3 3 -9 -2 -12 -12z"/>
<path d="M1430 3430 c-9 -6 -10 -10 -3 -10 6 0 15 5 18 10 8 12 4 12 -15 0z"/>
<path d="M1456 3423 c-6 -14 -5 -15 5 -6 7 7 10 15 7 18 -3 3 -9 -2 -12 -12z"/>
<path d="M1550 3430 c-9 -6 -10 -10 -3 -10 6 0 15 5 18 10 8 12 4 12 -15 0z"/>
<path d="M1576 3423 c-6 -14 -5 -15 5 -6 7 7 10 15 7 18 -3 3 -9 -2 -12 -12z"/>
<path d="M1670 3430 c-9 -6 -10 -10 -3 -10 6 0 15 5 18 10 8 12 4 12 -15 0z"/>
<path d="M1696 3423 c-6 -14 -5 -15 5 -6 7 7 10 15 7 18 -3 3 -9 -2 -12 -12z"/>
<path d="M1790 3430 c-9 -6 -10 -10 -3 -10 6 0 15 5 18 10 8 12 4 12 -15 0z"/>
<path d="M1816 3423 c-6 -14 -5 -15 5 -6 7 7 10 15 7 18 -3 3 -9 -2 -12 -12z"/>
<path d="M2270 3430 c-9 -6 -10 -10 -3 -10 6 0 15 5 18 10 8 12 4 12 -15 0z"/>
<path d="M2296 3423 c-6 -14 -5 -15 5 -6 7 7 10 15 7 18 -3 3 -9 -2 -12 -12z"/>
<path d="M2390 3430 c-9 -6 -10 -10 -3 -10 6 0 15 5 18 10 8 12 4 12 -15 0z"/>
<path d="M2416 3423 c-6 -14 -5 -15 5 -6 7 7 10 15 7 18 -3 3 -9 -2 -12 -12z"/>
<path d="M2510 3430 c-9 -6 -10 -10 -3 -10 6 0 15 5 18 10 8 12 4 12 -15 0z"/>
<path d="M2536 3423 c-6 -14 -5 -15 5 -6 7 7 10 15 7 18 -3 3 -9 -2 -12 -12z"/>
<path d="M2630 3430 c-9 -6 -10 -10 -3 -10 6 0 15 5 18 10 8 12 4 12 -15 0z"/>
<path d="M2656 3423 c-6 -14 -5 -15 5 -6 7 7 10 15 7 18 -3 3 -9 -2 -12 -12z"/>
<path d="M2750 3430 c-9 -6 -10 -10 -3 -10 6 0 15 5 18 10 8 12 4 12 -15 0z"/>
<path d="M2776 3423 c-6 -14 -5 -15 5 -6 7 7 10 15 7 18 -3 3 -9 -2 -12 -12z"/>
<path d="M755 3420 c3 -5 8 -10 11 -10 2 0 4 5 4 10 0 6 -5 10 -11 10 -5 0 -7
-4 -4 -10z"/>
<path d="M830 3419 c0 -5 5 -7 10 -4 6 3 10 8 10 11 0 2 -4 4 -10 4 -5 0 -10
-5 -10 -11z"/>
<path d="M1030 3419 c0 -5 5 -7 10 -4 6 3 10 8 10 11 0 2 -4 4 -10 4 -5 0 -10
-5 -10 -11z"/>
<path d="M1234 3418 c6 -21 3 -22 -27 -7 -21 10 -21 10 -3 -5 31 -25 55 -15
34 14 -8 12 -9 12 -4 -2z"/>
<path d="M1390 3419 c0 -5 5 -7 10 -4 6 3 10 8 10 11 0 2 -4 4 -10 4 -5 0 -10
-5 -10 -11z"/>
<path d="M1510 3419 c0 -5 5 -7 10 -4 6 3 10 8 10 11 0 2 -4 4 -10 4 -5 0 -10
-5 -10 -11z"/>
<path d="M1630 3419 c0 -5 5 -7 10 -4 6 3 10 8 10 11 0 2 -4 4 -10 4 -5 0 -10
-5 -10 -11z"/>
<path d="M1750 3419 c0 -5 5 -7 10 -4 6 3 10 8 10 11 0 2 -4 4 -10 4 -5 0 -10
-5 -10 -11z"/>
<path d="M1885 3420 c-3 -5 -1 -19 5 -30 10 -20 12 -20 34 -3 13 10 22 20 20
22 -2 2 -14 -4 -26 -15 -20 -18 -21 -18 -15 -1 5 12 3 16 -5 11 -8 -5 -9 -2
-5 9 7 18 2 23 -8 7z"/>
<path d="M2008 3419 c-20 -11 -24 -29 -6 -29 6 0 8 3 5 7 -4 3 1 12 11 19 20
16 14 18 -10 3z"/>
<path d="M2168 3419 c-20 -11 -24 -29 -6 -29 6 0 8 3 5 7 -4 3 1 12 11 19 20
16 14 18 -10 3z"/>
<path d="M2350 3419 c0 -5 5 -7 10 -4 6 3 10 8 10 11 0 2 -4 4 -10 4 -5 0 -10
-5 -10 -11z"/>
<path d="M2470 3419 c0 -5 5 -7 10 -4 6 3 10 8 10 11 0 2 -4 4 -10 4 -5 0 -10
-5 -10 -11z"/>
<path d="M2590 3419 c0 -5 5 -7 10 -4 6 3 10 8 10 11 0 2 -4 4 -10 4 -5 0 -10
-5 -10 -11z"/>
<path d="M2710 3419 c0 -5 5 -7 10 -4 6 3 10 8 10 11 0 2 -4 4 -10 4 -5 0 -10
-5 -10 -11z"/>
<path d="M2968 3419 c-20 -11 -24 -29 -6 -29 6 0 8 3 5 7 -4 3 1 12 11 19 20
16 14 18 -10 3z"/>
<path d="M3124 3414 c-18 -14 -18 -15 4 -4 12 6 22 13 22 15 0 8 -5 6 -26 -11z"/>
<path d="M4027 3419 c7 -7 15 -10 18 -7 3 3 -2 9 -12 12 -14 6 -15 5 -6 -5z"/>
<path d="M610 3416 c0 -2 8 -10 18 -17 15 -13 16 -12 3 4 -13 16 -21 21 -21
13z"/>
<path d="M1010 3405 c0 -8 4 -15 10 -15 5 0 7 7 4 15 -4 8 -8 15 -10 15 -2 0
-4 -7 -4 -15z"/>
<path d="M1373 3400 c3 -19 10 -25 28 -25 15 0 25 7 27 18 2 9 -1 17 -7 17 -6
0 -8 -6 -5 -13 3 -8 -4 -13 -16 -14 -11 -1 -18 2 -16 6 3 4 0 13 -5 21 -7 11
-8 8 -6 -10z"/>
<path d="M1490 3405 c0 -8 4 -15 10 -15 5 0 7 7 4 15 -4 8 -8 15 -10 15 -2 0
-4 -7 -4 -15z"/>
<path d="M1610 3415 c0 -5 5 -17 10 -25 5 -8 10 -10 10 -5 0 6 -5 17 -10 25
-5 8 -10 11 -10 5z"/>
<path d="M2330 3411 c0 -10 19 -25 25 -20 1 2 -3 10 -11 17 -8 7 -14 8 -14 3z"/>
<path d="M2450 3411 c0 -10 19 -25 25 -20 1 2 -3 10 -11 17 -8 7 -14 8 -14 3z"/>
<path d="M2574 3396 c1 -12 10 -20 26 -23 18 -2 21 -1 10 6 -8 5 -17 8 -21 5
-4 -2 -9 4 -12 13 -3 15 -4 15 -3 -1z"/>
<path d="M2694 3396 c1 -12 10 -20 26 -23 18 -2 21 -1 10 6 -8 5 -17 8 -21 5
-4 -2 -9 4 -12 13 -3 15 -4 15 -3 -1z"/>
<path d="M2832 3404 c-7 -8 -8 -14 -3 -14 10 0 25 19 20 25 -2 1 -10 -3 -17
-11z"/>
<path d="M3146 3405 c-11 -8 -16 -15 -10 -15 5 0 18 7 28 15 11 8 16 15 10 15
-5 0 -18 -7 -28 -15z"/>
<path d="M3875 3404 c-10 -10 -13 -24 -9 -36 3 -12 2 -18 -3 -15 -5 4 -10 0
-10 -8 0 -8 5 -15 10 -15 6 0 2 -10 -9 -22 -14 -17 -15 -19 -2 -10 14 12 17
11 16 -5 0 -10 1 -24 3 -32 2 -7 -1 -15 -7 -18 -7 -2 -11 4 -10 13 0 9 -5 18
-12 20 -7 1 -8 0 -2 -3 5 -2 10 -9 10 -14 0 -6 -4 -8 -9 -5 -5 4 -8 -2 -7 -11
2 -10 9 -18 17 -19 57 -4 54 -2 30 -28 -13 -14 -21 -31 -18 -38 4 -10 6 -10 6
1 1 8 11 25 23 38 l22 24 -22 6 -23 6 20 19 c18 16 19 22 8 38 -6 11 -14 20
-17 20 -3 0 -6 9 -7 19 -2 25 34 35 47 13 5 -10 10 -12 10 -5 0 6 -4 14 -10
18 -13 8 21 46 34 38 6 -3 5 0 -3 8 -10 11 -15 11 -18 2 -3 -7 -9 -13 -14 -13
-6 0 -8 4 -5 9 11 16 -23 20 -39 5z m26 -37 c-18 -18 -38 8 -21 28 12 15 14
15 23 0 6 -11 5 -21 -2 -28z m-6 -86 c3 -5 1 -12 -4 -15 -5 -3 -11 1 -15 9 -6
16 9 21 19 6z"/>
<path d="M667 3390 c-3 -11 -3 -20 -1 -20 2 0 8 9 14 20 6 11 7 20 2 20 -6 0
-12 -9 -15 -20z"/>
<path d="M790 3392 c6 -12 15 -20 20 -17 5 3 11 -4 15 -15 3 -11 11 -20 16
-20 5 0 2 11 -7 25 -9 14 -19 23 -22 20 -3 -2 -11 3 -19 13 -13 15 -13 15 -3
-6z"/>
<path d="M840 3400 c-8 -5 -10 -10 -5 -10 6 0 17 5 25 10 8 5 11 10 5 10 -5 0
-17 -5 -25 -10z"/>
<path d="M911 3394 c0 -11 3 -14 6 -6 3 7 2 16 -1 19 -3 4 -6 -2 -5 -13z"/>
<path d="M1057 3393 c4 -10 2 -14 -5 -9 -6 3 -13 2 -16 -3 -4 -5 2 -8 11 -7
19 3 32 36 14 36 -6 0 -7 -7 -4 -17z"/>
<path d="M1135 3400 c-3 -5 -2 -10 4 -10 5 0 13 5 16 10 3 6 2 10 -4 10 -5 0
-13 -4 -16 -10z"/>
<path d="M1297 3393 c6 -16 5 -16 -10 -4 -12 9 -17 10 -17 2 0 -7 -5 -9 -12
-5 -6 4 -8 3 -5 -3 10 -16 52 -8 55 10 2 9 -1 17 -7 17 -6 0 -7 -8 -4 -17z"/>
<path d="M1537 3393 c4 -10 2 -14 -5 -9 -6 3 -13 2 -16 -3 -4 -5 2 -8 11 -7
19 3 32 36 14 36 -6 0 -7 -7 -4 -17z"/>
<path d="M1655 3400 c3 -5 11 -10 16 -10 6 0 7 5 4 10 -3 6 -11 10 -16 10 -6
0 -7 -4 -4 -10z"/>
<path d="M1701 3397 c-6 -8 -8 -17 -4 -20 10 -10 33 -8 33 3 0 5 -8 6 -17 3
-16 -6 -16 -5 -4 10 7 9 11 17 8 17 -2 0 -10 -6 -16 -13z"/>
<path d="M1772 3393 c2 -9 14 -18 28 -20 18 -2 21 -1 10 6 -8 5 -18 7 -24 4
-5 -4 -7 1 -3 10 3 10 2 17 -4 17 -6 0 -9 -7 -7 -17z"/>
<path d="M1820 3400 c-8 -5 -10 -10 -5 -10 6 0 17 5 25 10 8 5 11 10 5 10 -5
0 -17 -5 -25 -10z"/>
<path d="M2076 3399 c2 -4 -1 -9 -8 -11 -6 -2 -12 -12 -14 -22 -1 -10 0 -16 3
-13 2 3 4 9 3 12 -1 4 11 16 26 26 25 16 26 18 7 16 -12 0 -20 -4 -17 -8z"/>
<path d="M2254 3395 c4 -10 -1 -14 -16 -12 -13 1 -22 -4 -23 -16 -2 -9 1 -15
6 -11 5 3 7 10 4 15 -4 5 4 8 16 6 14 -1 23 4 24 16 2 9 -1 17 -7 17 -6 0 -8
-7 -4 -15z"/>
<path d="M2378 3403 c6 -2 12 -9 12 -14 0 -6 -5 -7 -12 -3 -6 4 -8 3 -4 -4 3
-6 16 -9 27 -7 15 3 19 0 15 -11 -4 -10 -2 -13 6 -8 8 5 9 1 4 -12 -5 -14 -4
-16 4 -8 14 14 -5 58 -19 49 -5 -3 -11 2 -15 10 -3 8 -11 15 -18 14 -10 0 -10
-2 0 -6z"/>
<path d="M2430 3405 c0 -5 5 -17 10 -25 5 -8 10 -10 10 -5 0 6 -5 17 -10 25
-5 8 -10 11 -10 5z"/>
<path d="M2504 3395 c8 -9 18 -14 20 -13 3 2 12 -6 20 -17 9 -11 16 -15 16
-10 0 6 5 3 11 -5 7 -10 9 -11 7 -2 -2 8 -8 13 -13 13 -6 0 -14 7 -18 15 -5 8
-12 12 -17 9 -4 -3 -10 2 -14 10 -3 8 -10 15 -16 15 -7 0 -5 -7 4 -15z"/>
<path d="M2610 3400 c0 -5 5 -10 10 -10 6 0 10 5 10 10 0 6 -4 10 -10 10 -5 0
-10 -4 -10 -10z"/>
<path d="M2664 3395 c-4 -8 -10 -13 -14 -10 -5 3 -11 1 -14 -4 -4 -5 1 -8 10
-7 15 2 42 36 29 36 -3 0 -8 -7 -11 -15z"/>
<path d="M2730 3400 c0 -5 5 -10 10 -10 6 0 10 5 10 10 0 6 -4 10 -10 10 -5 0
-10 -4 -10 -10z"/>
<path d="M2784 3395 c-4 -8 -10 -13 -14 -10 -5 3 -11 1 -14 -4 -4 -5 0 -8 8
-7 17 2 51 36 36 36 -6 0 -13 -7 -16 -15z"/>
<path d="M2877 3395 c-8 -8 -18 -11 -22 -7 -5 4 -5 1 -1 -6 6 -11 12 -10 29 5
12 10 24 19 26 20 2 2 -1 3 -7 3 -6 0 -17 -7 -25 -15z"/>
<path d="M3036 3399 c2 -4 -1 -9 -8 -11 -6 -2 -12 -12 -14 -22 -1 -10 0 -16 3
-13 2 3 4 9 3 12 -1 4 11 16 26 26 25 16 26 18 7 16 -12 0 -20 -4 -17 -8z"/>
<path d="M3976 3393 c-6 -14 -5 -15 5 -6 7 7 10 15 7 18 -3 3 -9 -2 -12 -12z"/>
<path d="M4793 3397 c-3 -6 -1 -7 5 -3 5 3 12 1 14 -6 3 -8 6 -7 10 3 7 17
-19 22 -29 6z"/>
<path d="M590 3396 c0 -2 8 -10 18 -17 15 -13 16 -12 3 4 -13 16 -21 21 -21
13z"/>
<path d="M713 3385 c0 -8 4 -15 9 -15 4 0 8 4 8 9 0 6 -4 12 -8 15 -5 3 -9 -1
-9 -9z"/>
<path d="M974 3389 c1 -7 13 -14 27 -16 18 -2 20 -1 9 6 -8 5 -17 8 -21 5 -4
-2 -10 1 -12 6 -3 6 -4 5 -3 -1z"/>
<path d="M1094 3389 c1 -7 13 -14 27 -16 18 -2 20 -1 9 6 -8 5 -17 8 -21 5 -4
-2 -10 1 -12 6 -3 6 -4 5 -3 -1z"/>
<path d="M1180 3389 c0 -5 -4 -8 -9 -4 -5 3 -12 1 -15 -4 -4 -5 2 -8 11 -7 15
3 33 26 19 26 -3 0 -6 -5 -6 -11z"/>
<path d="M1331 3393 c-1 -17 16 -25 25 -12 4 7 3 9 -4 5 -5 -3 -13 0 -15 6 -4
9 -6 10 -6 1z"/>
<path d="M1454 3389 c1 -7 13 -14 27 -16 18 -2 20 -1 9 6 -8 5 -17 8 -21 5 -4
-2 -10 1 -12 6 -3 6 -4 5 -3 -1z"/>
<path d="M1574 3389 c3 -15 36 -21 36 -7 0 6 -6 8 -14 5 -8 -3 -17 -2 -20 4
-2 5 -3 4 -2 -2z"/>
<path d="M1860 3389 c0 -5 -4 -8 -9 -4 -5 3 -12 1 -15 -4 -4 -5 2 -8 11 -7 15
3 33 26 19 26 -3 0 -6 -5 -6 -11z"/>
<path d="M855 3381 c-6 -11 6 -20 35 -26 11 -2 20 1 20 6 0 5 -6 9 -12 8 -26
-3 -39 1 -33 11 3 6 4 10 1 10 -3 0 -7 -4 -11 -9z"/>
<path d="M940 3372 c6 -12 15 -20 20 -17 4 3 11 0 13 -5 4 -7 5 -6 4 0 -2 7
-6 10 -9 8 -4 -2 -14 6 -23 17 -16 19 -16 19 -5 -3z"/>
<path d="M1196 3373 c-6 -14 -5 -15 5 -6 7 7 10 15 7 18 -3 3 -9 -2 -12 -12z"/>
<path d="M1937 3383 c-3 -5 0 -17 4 -28 9 -18 9 -18 5 3 -3 16 1 22 14 22 13
0 17 -6 14 -22 -4 -21 -4 -21 5 -3 11 25 5 35 -19 35 -10 0 -21 -3 -23 -7z"/>
<path d="M2097 3383 c-3 -5 0 -17 4 -28 9 -18 9 -18 5 3 -3 16 1 22 14 22 13
0 17 -6 14 -22 -4 -21 -4 -21 5 -3 11 25 5 35 -19 35 -10 0 -21 -3 -23 -7z"/>
<path d="M2310 3380 c0 -5 5 -10 10 -10 6 0 10 5 10 10 0 6 -4 10 -10 10 -5 0
-10 -4 -10 -10z"/>
<path d="M2796 3373 c-6 -14 -5 -15 5 -6 7 7 10 15 7 18 -3 3 -9 -2 -12 -12z"/>
<path d="M2897 3383 c-3 -5 0 -17 4 -28 9 -18 9 -18 5 3 -3 16 1 22 14 22 13
0 17 -6 14 -22 -4 -21 -4 -21 5 -3 11 25 5 35 -19 35 -10 0 -21 -3 -23 -7z"/>
<path d="M3054 3379 c-4 -7 -3 -9 4 -5 5 3 13 0 15 -6 4 -9 6 -10 6 -1 1 17
-16 25 -25 12z"/>
<path d="M3099 3388 c-6 -21 -5 -37 2 -32 5 3 6 10 3 16 -5 8 -1 9 10 5 10 -4
15 -3 11 3 -5 9 -24 14 -26 8z"/>
<path d="M630 3376 c0 -2 8 -10 18 -17 15 -13 16 -12 3 4 -13 16 -21 21 -21
13z"/>
<path d="M1741 3364 c0 -11 3 -14 6 -6 3 7 2 16 -1 19 -3 4 -6 -2 -5 -13z"/>
<path d="M3150 3369 c0 -5 5 -7 10 -4 6 3 10 8 10 11 0 2 -4 4 -10 4 -5 0 -10
-5 -10 -11z"/>
<path d="M546 3362 c-2 -4 4 -8 14 -8 10 0 16 4 14 8 -3 4 -9 8 -14 8 -5 0
-11 -4 -14 -8z"/>
<path d="M676 3362 c-3 -5 1 -9 9 -9 8 0 15 4 15 9 0 4 -4 8 -9 8 -6 0 -12 -4
-15 -8z"/>
<path d="M770 3366 c0 -2 7 -7 16 -10 8 -3 12 -2 9 4 -6 10 -25 14 -25 6z"/>
<path d="M1066 3362 c-2 -4 4 -8 14 -8 10 0 16 4 14 8 -3 4 -9 8 -14 8 -5 0
-11 -4 -14 -8z"/>
<path d="M1228 3363 c7 -3 16 -2 19 1 4 3 -2 6 -13 5 -11 0 -14 -3 -6 -6z"/>
<path d="M1306 3362 c-2 -4 4 -8 14 -8 10 0 16 4 14 8 -3 4 -9 8 -14 8 -5 0
-11 -4 -14 -8z"/>
<path d="M1349 3349 c-6 -13 -7 -19 -1 -15 6 3 13 0 15 -6 4 -10 6 -10 6 0 1
7 6 10 13 6 7 -4 8 -3 4 5 -4 6 -12 8 -18 5 -7 -5 -9 -1 -5 9 9 24 0 21 -14
-4z"/>
<path d="M1427 3364 c-4 -4 -7 -12 -7 -18 0 -6 5 -4 10 4 9 13 11 13 21 0 9
-12 10 -12 7 -1 -5 17 -21 25 -31 15z"/>
<path d="M1546 3362 c-2 -4 4 -8 14 -8 10 0 16 4 14 8 -3 4 -9 8 -14 8 -5 0
-11 -4 -14 -8z"/>
<path d="M1616 3362 c-3 -5 1 -9 9 -9 8 0 12 4 9 9 -3 4 -7 8 -9 8 -2 0 -6 -4
-9 -8z"/>
<path d="M1675 3360 c27 -12 43 -12 25 0 -8 5 -22 9 -30 9 -10 0 -8 -3 5 -9z"/>
<path d="M1766 3357 c3 -10 9 -15 12 -12 3 3 0 11 -7 18 -10 9 -11 8 -5 -6z"/>
<path d="M1866 3362 c-2 -4 4 -8 14 -8 10 0 16 4 14 8 -3 4 -9 8 -14 8 -5 0
-11 -4 -14 -8z"/>
<path d="M2273 3355 c0 -7 6 -11 14 -8 7 3 13 6 13 8 0 2 -6 5 -13 8 -8 3 -14
-1 -14 -8z"/>
<path d="M2348 3363 c7 -3 16 -2 19 1 4 3 -2 6 -13 5 -11 0 -14 -3 -6 -6z"/>
<path d="M2490 3360 c0 -5 5 -10 10 -10 6 0 10 5 10 10 0 6 -4 10 -10 10 -5 0
-10 -4 -10 -10z"/>
<path d="M2666 3362 c-2 -4 4 -8 14 -8 10 0 16 4 14 8 -3 4 -9 8 -14 8 -5 0
-11 -4 -14 -8z"/>
<path d="M2828 3363 c7 -3 16 -2 19 1 4 3 -2 6 -13 5 -11 0 -14 -3 -6 -6z"/>
<path d="M3940 3359 c0 -5 5 -7 10 -4 6 3 10 8 10 11 0 2 -4 4 -10 4 -5 0 -10
-5 -10 -11z"/>
<path d="M719 3358 c-5 -18 -6 -38 -1 -34 7 8 12 36 6 36 -2 0 -4 -1 -5 -2z"/>
<path d="M1032 3351 c-11 -6 -9 -9 6 -13 15 -4 19 -2 15 8 -6 16 -4 16 -21 5z"/>
<path d="M1107 3347 c-3 -7 5 -12 19 -12 29 0 29 1 5 14 -14 8 -20 7 -24 -2z"/>
<path d="M1150 3356 c0 -2 9 -6 20 -9 11 -3 18 -1 14 4 -5 9 -34 13 -34 5z"/>
<path d="M1512 3351 c-11 -6 -9 -9 6 -13 15 -4 19 -2 15 8 -6 16 -4 16 -21 5z"/>
<path d="M1587 3347 c-3 -8 1 -14 8 -14 7 0 11 6 8 14 -3 7 -6 13 -8 13 -2 0
-5 -6 -8 -13z"/>
<path d="M1832 3351 c-11 -6 -9 -9 6 -13 15 -4 19 -2 15 8 -6 16 -4 16 -21 5z"/>
<path d="M1907 3347 c-3 -8 0 -14 7 -14 7 0 13 6 13 14 0 7 -4 13 -8 13 -4 0
-9 -6 -12 -13z"/>
<path d="M1998 3353 c7 -3 16 -2 19 1 4 3 -2 6 -13 5 -11 0 -14 -3 -6 -6z"/>
<path d="M2079 3358 c-5 -18 -6 -38 -1 -34 7 8 12 36 6 36 -2 0 -4 -1 -5 -2z"/>
<path d="M2158 3353 c7 -3 16 -2 19 1 4 3 -2 6 -13 5 -11 0 -14 -3 -6 -6z"/>
<path d="M2632 3351 c-11 -6 -9 -9 6 -13 15 -4 19 -2 15 8 -6 16 -4 16 -21 5z"/>
<path d="M2707 3347 c-3 -7 5 -12 19 -12 29 0 29 1 5 14 -14 8 -20 7 -24 -2z"/>
<path d="M2750 3356 c0 -2 9 -6 20 -9 11 -3 18 -1 14 4 -5 9 -34 13 -34 5z"/>
<path d="M2958 3353 c7 -3 16 -2 19 1 4 3 -2 6 -13 5 -11 0 -14 -3 -6 -6z"/>
<path d="M3035 3350 c-3 -6 1 -7 9 -4 18 7 21 14 7 14 -6 0 -13 -4 -16 -10z"/>
<path d="M3115 3350 c-3 -6 1 -7 9 -4 18 7 21 14 7 14 -6 0 -13 -4 -16 -10z"/>
<path d="M760 3346 c0 -2 7 -7 16 -10 8 -3 12 -2 9 4 -6 10 -25 14 -25 6z"/>
<path d="M930 3345 c5 -22 -1 -29 -11 -15 -8 12 -10 12 -7 1 5 -18 37 -23 34
-5 -1 7 -6 17 -10 21 -4 4 -7 4 -6 -2z"/>
<path d="M1196 3333 c-6 -14 -5 -15 5 -6 7 7 10 15 7 18 -3 3 -9 -2 -12 -12z"/>
<path d="M1240 3346 c0 -2 7 -7 16 -10 8 -3 12 -2 9 4 -6 10 -25 14 -25 6z"/>
<path d="M2238 3343 c7 -3 16 -2 19 1 4 3 -2 6 -13 5 -11 0 -14 -3 -6 -6z"/>
<path d="M2313 3335 c0 -8 4 -12 9 -9 4 3 8 9 8 15 0 5 -4 9 -8 9 -5 0 -9 -7
-9 -15z"/>
<path d="M2360 3346 c0 -2 7 -7 16 -10 8 -3 12 -2 9 4 -6 10 -25 14 -25 6z"/>
<path d="M2516 3342 c-6 -10 5 -26 20 -29 6 -1 11 4 11 12 0 7 -7 11 -15 7
-10 -3 -13 -1 -8 6 4 7 5 12 2 12 -3 0 -7 -4 -10 -8z"/>
<path d="M2796 3333 c-6 -14 -5 -15 5 -6 7 7 10 15 7 18 -3 3 -9 -2 -12 -12z"/>
<path d="M2840 3346 c0 -2 7 -7 16 -10 8 -3 12 -2 9 4 -6 10 -25 14 -25 6z"/>
<path d="M1076 3327 c3 -10 9 -15 12 -12 3 3 0 11 -7 18 -10 9 -11 8 -5 -6z"/>
<path d="M1316 3327 c3 -10 9 -15 12 -12 3 3 0 11 -7 18 -10 9 -11 8 -5 -6z"/>
<path d="M1556 3327 c3 -10 9 -15 12 -12 3 3 0 11 -7 18 -10 9 -11 8 -5 -6z"/>
<path d="M1632 3326 c7 -8 15 -12 17 -11 5 6 -10 25 -20 25 -5 0 -4 -6 3 -14z"/>
<path d="M1741 3324 c0 -11 3 -14 6 -6 3 7 2 16 -1 19 -3 4 -6 -2 -5 -13z"/>
<path d="M1876 3327 c3 -10 9 -15 12 -12 3 3 0 11 -7 18 -10 9 -11 8 -5 -6z"/>
<path d="M2676 3327 c3 -10 9 -15 12 -12 3 3 0 11 -7 18 -10 9 -11 8 -5 -6z"/>
<path d="M3091 3332 c-1 -7 -6 -10 -13 -6 -6 4 -8 3 -5 -4 8 -12 32 -10 44 3
4 4 3 5 -4 2 -6 -4 -14 -1 -16 5 -4 10 -6 10 -6 0z"/>
<path d="M3896 3325 c4 -8 10 -15 15 -15 4 0 6 7 3 15 -4 8 -10 15 -15 15 -4
0 -6 -7 -3 -15z"/>
<path d="M4781 3324 c0 -11 3 -14 6 -6 3 7 2 16 -1 19 -3 4 -6 -2 -5 -13z"/>
<path d="M845 3319 c-3 -4 2 -6 10 -5 21 3 28 13 10 13 -9 0 -18 -4 -20 -8z"/>
<path d="M1236 3313 c-6 -14 -5 -15 5 -6 7 7 10 15 7 18 -3 3 -9 -2 -12 -12z"/>
<path d="M2356 3313 c-6 -14 -5 -15 5 -6 7 7 10 15 7 18 -3 3 -9 -2 -12 -12z"/>
<path d="M2446 3322 c-3 -5 1 -9 9 -9 8 0 15 4 15 9 0 4 -4 8 -9 8 -6 0 -12
-4 -15 -8z"/>
<path d="M2836 3313 c-6 -14 -5 -15 5 -6 7 7 10 15 7 18 -3 3 -9 -2 -12 -12z"/>
<path d="M3966 3318 c3 -5 10 -6 15 -3 13 9 11 12 -6 12 -8 0 -12 -4 -9 -9z"/>
<path d="M650 3299 c0 -5 5 -7 10 -4 6 3 10 8 10 11 0 2 -4 4 -10 4 -5 0 -10
-5 -10 -11z"/>
<path d="M3920 3300 c-9 -6 -10 -10 -3 -10 6 0 15 5 18 10 8 12 4 12 -15 0z"/>
<path d="M4750 3300 c-11 -7 -11 -10 -2 -10 8 0 10 -5 6 -12 -4 -7 -4 -10 1
-6 4 4 13 4 19 -2 8 -6 12 -3 12 9 0 12 -5 17 -15 13 -9 -3 -12 -1 -7 6 9 14
6 15 -14 2z"/>
<path d="M3946 3278 c3 -5 10 -6 15 -3 13 9 11 12 -6 12 -8 0 -12 -4 -9 -9z"/>
<path d="M4753 3233 c-3 -7 -10 -10 -16 -6 -6 4 -7 1 -2 -7 6 -10 10 -10 20 3
8 11 15 13 22 6 6 -6 10 -5 10 4 0 18 -27 18 -34 0z"/>
<path d="M4800 3200 c-9 -6 -10 -10 -3 -10 6 0 15 5 18 10 8 12 4 12 -15 0z"/>
<path d="M3910 3179 c0 -5 5 -7 10 -4 6 3 10 8 10 11 0 2 -4 4 -10 4 -5 0 -10
-5 -10 -11z"/>
<path d="M4750 3177 c0 -2 6 -10 14 -16 11 -9 16 -9 22 1 4 7 4 10 -1 6 -4 -4
-14 -3 -22 3 -7 6 -13 9 -13 6z"/>
<path d="M3837 3153 c-4 -3 -7 -11 -7 -17 0 -6 5 -5 12 2 6 6 9 14 7 17 -3 3
-9 2 -12 -2z"/>
<path d="M4716 3145 c-9 -26 -7 -32 5 -12 6 10 9 21 6 23 -2 3 -7 -2 -11 -11z"/>
<path d="M3868 3139 c-20 -11 -24 -29 -7 -29 5 0 7 5 4 10 -6 9 8 14 28 11 5
-1 6 3 2 9 -7 12 -6 12 -27 -1z"/>
<path d="M1933 3105 c0 -8 4 -12 9 -9 5 3 6 10 3 15 -9 13 -12 11 -12 -6z"/>
<path d="M2173 3105 c0 -8 4 -12 9 -9 5 3 6 10 3 15 -9 13 -12 11 -12 -6z"/>
<path d="M2413 3105 c0 -8 4 -12 9 -9 5 3 6 10 3 15 -9 13 -12 11 -12 -6z"/>
<path d="M2653 3105 c0 -8 4 -12 9 -9 5 3 6 10 3 15 -9 13 -12 11 -12 -6z"/>
<path d="M2893 3105 c0 -8 4 -12 9 -9 5 3 6 10 3 15 -9 13 -12 11 -12 -6z"/>
<path d="M1000 3100 c-9 -6 -10 -10 -3 -10 6 0 15 5 18 10 8 12 4 12 -15 0z"/>
<path d="M1117 3093 c3 -7 6 -13 8 -13 2 0 5 6 8 13 3 8 -1 14 -8 14 -7 0 -11
-6 -8 -14z"/>
<path d="M1268 3103 c6 -3 9 -9 6 -15 -4 -6 2 -5 15 1 27 15 27 16 -7 17 -15
1 -21 -1 -14 -3z"/>
<path d="M1360 3100 c-23 -7 -23 -8 -3 -9 12 -1 25 4 28 9 3 6 5 10 3 9 -2 -1
-14 -5 -28 -9z"/>
<path d="M1440 3100 c-23 -7 -23 -8 -3 -9 12 -1 25 4 28 9 3 6 5 10 3 9 -2 -1
-14 -5 -28 -9z"/>
<path d="M1520 3100 c-23 -7 -23 -8 -3 -9 12 -1 25 4 28 9 3 6 5 10 3 9 -2 -1
-14 -5 -28 -9z"/>
<path d="M1600 3100 c-23 -7 -23 -8 -3 -9 12 -1 25 4 28 9 3 6 5 10 3 9 -2 -1
-14 -5 -28 -9z"/>
<path d="M1680 3100 c-23 -7 -23 -8 -3 -9 12 -1 25 4 28 9 3 6 5 10 3 9 -2 -1
-14 -5 -28 -9z"/>
<path d="M1760 3100 c-23 -7 -23 -8 -3 -9 12 -1 25 4 28 9 3 6 5 10 3 9 -2 -1
-14 -5 -28 -9z"/>
<path d="M1840 3100 c-23 -7 -23 -8 -3 -9 12 -1 25 4 28 9 3 6 5 10 3 9 -2 -1
-14 -5 -28 -9z"/>
<path d="M1997 3090 c-9 -11 -13 -20 -7 -20 5 0 14 9 20 20 6 11 9 20 8 20 -2
0 -11 -9 -21 -20z"/>
<path d="M2237 3090 c-9 -11 -13 -20 -7 -20 5 0 14 9 20 20 6 11 9 20 8 20 -2
0 -11 -9 -21 -20z"/>
<path d="M2477 3090 c-9 -11 -13 -20 -7 -20 5 0 14 9 20 20 6 11 9 20 8 20 -2
0 -11 -9 -21 -20z"/>
<path d="M2717 3090 c-9 -11 -13 -20 -7 -20 5 0 14 9 20 20 6 11 9 20 8 20 -2
0 -11 -9 -21 -20z"/>
<path d="M2957 3090 c-9 -11 -13 -20 -7 -20 5 0 14 9 20 20 6 11 9 20 8 20 -2
0 -11 -9 -21 -20z"/>
<path d="M4747 3099 c7 -7 15 -10 18 -7 3 3 -2 9 -12 12 -14 6 -15 5 -6 -5z"/>
<path d="M1039 3088 c7 -10 18 -15 24 -11 7 4 8 0 3 -13 -5 -14 -4 -16 4 -7 9
8 9 16 1 30 -7 11 -10 13 -11 4 0 -11 -3 -11 -17 0 -16 13 -17 12 -4 -3z"/>
<path d="M3835 3090 c-3 -5 -1 -10 4 -10 6 0 11 5 11 10 0 6 -2 10 -4 10 -3 0
-8 -4 -11 -10z"/>
<path d="M1140 3080 c0 -5 5 -10 11 -10 5 0 7 5 4 10 -3 6 -8 10 -11 10 -2 0
-4 -4 -4 -10z"/>
<path d="M1176 3075 c-7 -18 17 -31 35 -19 9 5 10 2 6 -9 -3 -10 -2 -17 4 -17
6 0 9 8 7 18 -2 11 -11 16 -26 14 -16 -2 -20 1 -16 12 3 9 4 16 1 16 -3 0 -8
-7 -11 -15z"/>
<path d="M1240 3080 c-9 -6 -10 -10 -3 -10 6 0 15 5 18 10 8 12 4 12 -15 0z"/>
<path d="M1382 3082 c-8 -6 -2 -9 18 -9 20 0 26 3 18 9 -7 4 -15 8 -18 8 -3 0
-11 -4 -18 -8z"/>
<path d="M1470 3082 c0 -4 10 -9 22 -9 18 -2 20 0 8 7 -18 12 -30 13 -30 2z"/>
<path d="M1554 3081 c3 -5 -1 -12 -10 -15 -8 -3 -12 -10 -9 -16 3 -5 2 -10 -4
-10 -5 0 -12 5 -14 10 -3 6 -4 5 -3 -2 3 -15 26 -18 25 -4 0 5 6 13 15 18 18
10 21 28 5 28 -5 0 -8 -4 -5 -9z"/>
<path d="M1630 3082 c0 -4 10 -9 22 -9 18 -2 20 0 8 7 -18 12 -30 13 -30 2z"/>
<path d="M1713 3083 c4 -3 -1 -12 -11 -20 -15 -13 -15 -13 6 -3 23 11 30 30
10 30 -6 0 -8 -3 -5 -7z"/>
<path d="M1790 3082 c0 -4 10 -9 22 -9 18 -2 20 0 8 7 -18 12 -30 13 -30 2z"/>
<path d="M1873 3083 c4 -3 -1 -12 -11 -20 -15 -13 -15 -13 6 -3 23 11 30 30
10 30 -6 0 -8 -3 -5 -7z"/>
<path d="M2017 3076 c-3 -8 -3 -17 0 -20 10 -10 33 -7 33 4 0 5 -7 7 -15 4
-11 -5 -13 -2 -9 10 3 9 4 16 1 16 -3 0 -7 -6 -10 -14z"/>
<path d="M2061 3074 c0 -11 3 -14 6 -6 3 7 2 16 -1 19 -3 4 -6 -2 -5 -13z"/>
<path d="M2089 3075 c9 -20 46 -31 55 -16 3 4 0 13 -6 21 -8 12 -9 12 -4 -3 7
-22 -22 -20 -42 3 -11 13 -12 12 -3 -5z"/>
<path d="M2157 3079 c7 -7 15 -10 18 -7 3 3 -2 9 -12 12 -14 6 -15 5 -6 -5z"/>
<path d="M2257 3075 c-7 -17 3 -25 29 -21 10 2 20 11 21 22 2 14 1 15 -5 4
-10 -21 -44 -26 -36 -5 3 8 4 15 1 15 -3 0 -7 -7 -10 -15z"/>
<path d="M2329 3075 c5 -11 20 -21 33 -22 13 0 17 1 11 4 -7 2 -15 3 -17 1 -3
-2 -12 6 -21 17 -16 20 -16 20 -6 0z"/>
<path d="M2370 3078 c0 -4 4 -8 9 -8 6 0 12 4 15 8 3 5 -1 9 -9 9 -8 0 -15 -4
-15 -9z"/>
<path d="M2424 3075 c-4 -8 -11 -12 -17 -8 -6 3 -7 1 -3 -5 9 -15 9 -15 29 8
9 11 12 20 7 20 -6 0 -13 -7 -16 -15z"/>
<path d="M2546 3079 c3 -5 9 -7 14 -4 4 3 10 0 12 -7 5 -13 45 -21 52 -10 3 4
0 14 -6 22 -8 12 -9 12 -4 -3 4 -13 1 -17 -12 -15 -9 2 -20 7 -24 12 -9 13
-40 17 -32 5z"/>
<path d="M2637 3079 c7 -7 15 -10 18 -7 3 3 -2 9 -12 12 -14 6 -15 5 -6 -5z"/>
<path d="M2737 3075 c-7 -17 3 -25 29 -21 10 2 20 11 21 22 2 14 1 15 -5 4
-10 -21 -44 -26 -36 -5 3 8 4 15 1 15 -3 0 -7 -7 -10 -15z"/>
<path d="M2809 3075 c5 -11 20 -21 33 -22 13 0 17 1 11 4 -7 2 -15 3 -17 1 -3
-2 -12 6 -21 17 -16 20 -16 20 -6 0z"/>
<path d="M2850 3078 c0 -4 4 -8 9 -8 6 0 12 4 15 8 3 5 -1 9 -9 9 -8 0 -15 -4
-15 -9z"/>
<path d="M2904 3075 c-4 -8 -11 -12 -17 -8 -6 3 -7 1 -3 -5 9 -15 9 -15 29 8
9 11 12 20 7 20 -6 0 -13 -7 -16 -15z"/>
<path d="M3031 3073 c7 -12 15 -20 18 -17 3 2 -3 12 -13 22 -17 16 -18 16 -5
-5z"/>
<path d="M3057 3079 c7 -7 15 -10 18 -7 3 3 -2 9 -12 12 -14 6 -15 5 -6 -5z"/>
<path d="M1911 3071 c-8 -5 -16 -20 -17 -33 -2 -13 0 -17 2 -11 3 7 5 16 5 20
0 5 10 13 22 20 12 7 18 12 12 12 -5 1 -16 -3 -24 -8z"/>
<path d="M1035 3050 c10 -11 20 -20 23 -20 3 0 -3 9 -13 20 -10 11 -20 20 -23
20 -3 0 3 -9 13 -20z"/>
<path d="M1110 3060 c0 -5 5 -10 10 -10 6 0 10 5 10 10 0 6 -4 10 -10 10 -5 0
-10 -4 -10 -10z"/>
<path d="M1255 3062 c-9 -9 -5 -32 5 -32 5 0 6 7 3 17 -4 10 -2 14 5 9 6 -3
13 -3 16 2 5 9 -20 12 -29 4z"/>
<path d="M1318 3062 c13 -4 23 -11 23 -17 -1 -15 22 -12 25 3 1 7 0 8 -3 2 -7
-14 -24 -13 -20 2 1 7 -9 14 -23 15 -24 2 -24 2 -2 -5z"/>
<path d="M1435 3059 c-4 -6 -4 -13 -1 -16 3 -4 6 -1 6 5 0 7 5 12 11 12 5 0 7
-5 3 -12 -4 -7 -3 -8 5 -4 12 8 6 26 -9 26 -5 0 -12 -5 -15 -11z"/>
<path d="M1579 3068 c0 -2 -2 -14 -5 -28 -3 -18 -2 -21 5 -10 5 8 7 18 5 22
-3 4 4 8 16 8 13 0 19 -4 14 -12 -4 -7 -3 -8 5 -4 16 10 4 26 -20 26 -10 0
-19 -1 -20 -2z"/>
<path d="M1739 3068 c0 -2 -2 -14 -5 -28 -3 -18 -2 -21 5 -10 5 8 7 18 5 22
-3 4 4 8 16 8 13 0 19 -4 14 -12 -4 -7 -3 -8 5 -4 16 10 4 26 -20 26 -10 0
-19 -1 -20 -2z"/>
<path d="M1950 3060 c0 -5 5 -10 10 -10 6 0 10 5 10 10 0 6 -4 10 -10 10 -5 0
-10 -4 -10 -10z"/>
<path d="M2190 3060 c0 -5 5 -10 10 -10 6 0 10 5 10 10 0 6 -4 10 -10 10 -5 0
-10 -4 -10 -10z"/>
<path d="M2437 3057 c-3 -8 -2 -20 3 -26 5 -9 8 -4 8 13 0 29 -3 32 -11 13z"/>
<path d="M2497 3057 c3 -5 14 -7 24 -4 12 3 19 -2 23 -17 4 -18 4 -17 3 3 -2
19 -8 25 -29 25 -14 1 -24 -2 -21 -7z"/>
<path d="M2670 3060 c0 -5 5 -10 10 -10 6 0 10 5 10 10 0 6 -4 10 -10 10 -5 0
-10 -4 -10 -10z"/>
<path d="M2917 3057 c-3 -8 -2 -20 3 -26 5 -9 8 -4 8 13 0 29 -3 32 -11 13z"/>
<path d="M2977 3057 c3 -5 14 -7 24 -4 12 3 19 -2 23 -17 4 -18 4 -17 3 3 -2
19 -8 25 -29 25 -14 1 -24 -2 -21 -7z"/>
<path d="M3906 3058 c3 -5 10 -6 15 -3 13 9 11 12 -6 12 -8 0 -12 -4 -9 -9z"/>
<path d="M1390 3045 c0 -8 4 -15 10 -15 5 0 7 7 4 15 -4 8 -8 15 -10 15 -2 0
-4 -7 -4 -15z"/>
<path d="M1476 3045 c-3 -8 -1 -15 4 -15 6 0 10 7 10 15 0 8 -2 15 -4 15 -2 0
-6 -7 -10 -15z"/>
<path d="M1636 3045 c-3 -8 -1 -15 4 -15 6 0 10 7 10 15 0 8 -2 15 -4 15 -2 0
-6 -7 -10 -15z"/>
<path d="M1670 3051 c0 -10 19 -25 25 -20 1 2 -3 10 -11 17 -8 7 -14 8 -14 3z"/>
<path d="M1796 3045 c-3 -8 -1 -15 4 -15 6 0 10 7 10 15 0 8 -2 15 -4 15 -2 0
-6 -7 -10 -15z"/>
<path d="M1830 3051 c0 -10 19 -25 25 -20 1 2 -3 10 -11 17 -8 7 -14 8 -14 3z"/>
<path d="M973 3035 c0 -8 4 -12 9 -9 5 3 6 10 3 15 -9 13 -12 11 -12 -6z"/>
<path d="M1076 3042 c-3 -5 1 -9 9 -9 8 0 15 4 15 9 0 4 -4 8 -9 8 -6 0 -12
-4 -15 -8z"/>
<path d="M1152 3042 c-9 -6 -5 -12 15 -20 24 -11 26 -10 11 1 -10 8 -15 17
-11 20 9 9 1 8 -15 -1z"/>
<path d="M1297 3033 c4 -10 2 -14 -5 -9 -6 3 -13 2 -16 -3 -4 -5 2 -8 11 -7
19 3 32 36 14 36 -6 0 -7 -7 -4 -17z"/>
<path d="M1980 3046 c0 -2 7 -6 15 -10 8 -3 15 -1 15 4 0 6 -7 10 -15 10 -8 0
-15 -2 -15 -4z"/>
<path d="M2063 3038 c-4 -7 -17 -13 -27 -13 -11 0 -20 -8 -22 -18 -1 -11 0
-16 3 -13 3 3 13 -2 21 -12 8 -9 6 -4 -3 12 -17 28 -17 29 4 23 14 -3 24 1 30
11 9 15 11 15 26 -3 16 -20 16 -19 5 3 -12 25 -25 28 -37 10z"/>
<path d="M2150 3041 c0 -6 5 -13 12 -17 6 -4 8 -3 4 4 -3 5 0 13 6 15 8 3 6 6
-4 6 -10 1 -18 -3 -18 -8z"/>
<path d="M2228 3043 c6 -2 9 -10 6 -15 -4 -7 -2 -8 4 -4 18 11 14 26 -5 25
-11 0 -13 -3 -5 -6z"/>
<path d="M2304 3036 c-3 -8 -12 -12 -19 -9 -23 8 -38 -6 -24 -23 6 -8 16 -14
22 -14 6 0 2 7 -9 16 -19 15 -19 15 2 11 13 -3 28 3 38 14 9 11 11 19 6 19 -6
0 -13 -6 -16 -14z"/>
<path d="M2390 3041 c0 -5 5 -13 10 -16 6 -3 10 -2 10 4 0 5 -4 13 -10 16 -5
3 -10 2 -10 -4z"/>
<path d="M2468 3043 c7 -3 16 -2 19 1 4 3 -2 6 -13 5 -11 0 -14 -3 -6 -6z"/>
<path d="M2570 3030 c6 -11 13 -20 16 -20 2 0 0 9 -6 20 -6 11 -13 20 -16 20
-2 0 0 -9 6 -20z"/>
<path d="M2630 3041 c0 -6 5 -13 12 -17 6 -4 8 -3 4 4 -3 5 0 13 6 15 8 3 6 6
-4 6 -10 1 -18 -3 -18 -8z"/>
<path d="M2708 3043 c6 -2 9 -10 6 -15 -4 -7 -2 -8 4 -4 18 11 14 26 -5 25
-11 0 -13 -3 -5 -6z"/>
<path d="M2784 3036 c-3 -8 -12 -12 -19 -9 -23 8 -38 -6 -24 -23 6 -8 16 -14
22 -14 6 0 2 7 -9 16 -19 15 -19 15 2 11 13 -3 28 3 38 14 9 11 11 19 6 19 -6
0 -13 -6 -16 -14z"/>
<path d="M2870 3041 c0 -5 5 -13 10 -16 6 -3 10 -2 10 4 0 5 -4 13 -10 16 -5
3 -10 2 -10 -4z"/>
<path d="M2948 3043 c7 -3 16 -2 19 1 4 3 -2 6 -13 5 -11 0 -14 -3 -6 -6z"/>
<path d="M1917 3033 c-4 -3 -7 -11 -7 -17 0 -6 5 -5 12 2 6 6 9 14 7 17 -3 3
-9 2 -12 -2z"/>
<path d="M2122 3027 c12 -9 14 -17 7 -24 -6 -6 -5 -10 5 -10 20 0 13 27 -10
39 -17 9 -18 8 -2 -5z"/>
<path d="M2195 3030 c-3 -5 -1 -10 4 -10 6 0 11 5 11 10 0 6 -2 10 -4 10 -3 0
-8 -4 -11 -10z"/>
<path d="M2602 3027 c12 -9 14 -17 7 -24 -6 -6 -5 -10 5 -10 20 0 13 27 -10
39 -17 9 -18 8 -2 -5z"/>
<path d="M2675 3030 c-3 -5 -1 -10 4 -10 6 0 11 5 11 10 0 6 -2 10 -4 10 -3 0
-8 -4 -11 -10z"/>
<path d="M1114 3005 c2 -35 11 -39 12 -4 1 16 -2 29 -6 29 -4 0 -6 -11 -6 -25z"/>
<path d="M1308 3008 c-10 -10 -14 -18 -9 -18 10 0 36 29 30 34 -2 1 -12 -6
-21 -16z"/>
<path d="M1372 3025 c4 -4 0 -13 -8 -20 -15 -11 -15 -12 -1 -12 20 0 30 24 14
33 -7 4 -9 4 -5 -1z"/>
<path d="M1415 3019 c-4 -6 -5 -12 -2 -15 2 -3 7 2 10 11 7 17 1 20 -8 4z"/>
<path d="M1439 3012 c-13 -15 -12 -16 3 -4 13 10 17 10 21 0 4 -9 6 -9 6 -1 2
20 -16 24 -30 5z"/>
<path d="M1496 3022 c-2 -4 -1 -14 3 -21 6 -9 11 -10 15 -2 4 6 2 11 -4 11 -6
0 -8 5 -5 10 3 6 4 10 1 10 -3 0 -7 -4 -10 -8z"/>
<path d="M1551 3025 c1 -19 18 -51 18 -35 0 8 -4 22 -9 30 -5 8 -9 11 -9 5z"/>
<path d="M1590 3018 c0 -6 6 -8 14 -5 8 3 17 2 20 -4 2 -5 3 -4 2 2 -3 15 -36
21 -36 7z"/>
<path d="M1656 3022 c-2 -4 -1 -14 3 -21 6 -9 11 -10 15 -2 4 6 2 11 -4 11 -6
0 -8 5 -5 10 3 6 4 10 1 10 -3 0 -7 -4 -10 -8z"/>
<path d="M1711 3025 c1 -19 18 -51 18 -35 0 8 -4 22 -9 30 -5 8 -9 11 -9 5z"/>
<path d="M1750 3018 c0 -6 6 -8 14 -5 8 3 17 2 20 -4 2 -5 3 -4 2 2 -3 15 -36
21 -36 7z"/>
<path d="M1816 3022 c-2 -4 -1 -14 3 -21 6 -9 11 -10 15 -2 4 6 2 11 -4 11 -6
0 -8 5 -5 10 3 6 4 10 1 10 -3 0 -7 -4 -10 -8z"/>
<path d="M1871 3025 c1 -19 18 -51 18 -35 0 8 -4 22 -9 30 -5 8 -9 11 -9 5z"/>
<path d="M2316 3013 c-6 -14 -5 -15 5 -6 7 7 10 15 7 18 -3 3 -9 -2 -12 -12z"/>
<path d="M2500 3026 c0 -2 7 -6 15 -10 8 -3 15 -1 15 4 0 6 -7 10 -15 10 -8 0
-15 -2 -15 -4z"/>
<path d="M2796 3013 c-6 -14 -5 -15 5 -6 7 7 10 15 7 18 -3 3 -9 -2 -12 -12z"/>
<path d="M2980 3026 c0 -2 7 -6 15 -10 8 -3 15 -1 15 4 0 6 -7 10 -15 10 -8 0
-15 -2 -15 -4z"/>
<path d="M3053 3015 c-3 -9 -3 -18 -1 -21 3 -3 8 4 11 16 6 23 -1 27 -10 5z"/>
<path d="M1238 3013 c7 -3 16 -2 19 1 4 3 -2 6 -13 5 -11 0 -14 -3 -6 -6z"/>
<path d="M2357 3006 c-4 -10 -3 -15 3 -11 6 3 10 1 10 -6 0 -7 3 -10 6 -6 3 3
2 13 -4 22 -8 16 -9 16 -15 1z"/>
<path d="M2837 3006 c-4 -10 -3 -15 3 -11 6 3 10 1 10 -6 0 -7 3 -10 6 -6 3 3
2 13 -4 22 -8 16 -9 16 -15 1z"/>
<path d="M1970 3002 c0 -5 7 -9 15 -9 8 0 12 4 9 9 -3 4 -9 8 -15 8 -5 0 -9
-4 -9 -8z"/>
<path d="M2170 3000 c0 -5 5 -10 10 -10 6 0 10 5 10 10 0 6 -4 10 -10 10 -5 0
-10 -4 -10 -10z"/>
<path d="M2433 2993 c0 -6 5 -9 11 -5 6 4 14 7 18 7 19 0 14 11 -6 11 -12 0
-23 -6 -23 -13z"/>
<path d="M2490 2999 c0 -5 5 -7 10 -4 6 3 10 8 10 11 0 2 -4 4 -10 4 -5 0 -10
-5 -10 -11z"/>
<path d="M2541 2994 c0 -11 3 -14 6 -6 3 7 2 16 -1 19 -3 4 -6 -2 -5 -13z"/>
<path d="M2650 3000 c0 -5 5 -10 10 -10 6 0 10 5 10 10 0 6 -4 10 -10 10 -5 0
-10 -4 -10 -10z"/>
<path d="M2913 2993 c0 -6 5 -9 11 -5 6 4 14 7 18 7 19 0 14 11 -6 11 -12 0
-23 -6 -23 -13z"/>
<path d="M2970 2999 c0 -5 5 -7 10 -4 6 3 10 8 10 11 0 2 -4 4 -10 4 -5 0 -10
-5 -10 -11z"/>
<path d="M3021 2994 c0 -11 3 -14 6 -6 3 7 2 16 -1 19 -3 4 -6 -2 -5 -13z"/>
<path d="M1194 2975 c0 -13 3 -22 7 -19 8 4 6 30 -2 38 -3 3 -5 -5 -5 -19z"/>
<path d="M4675 2989 c-4 -6 -5 -12 -2 -15 2 -3 7 2 10 11 7 17 1 20 -8 4z"/>
<path d="M1055 2980 c3 -5 8 -10 11 -10 2 0 4 5 4 10 0 6 -5 10 -11 10 -5 0
-7 -4 -4 -10z"/>
<path d="M1226 2980 c5 -8 9 -18 9 -22 0 -3 3 -9 7 -13 3 -4 5 0 4 9 -1 9 -8
22 -16 29 -10 10 -11 9 -4 -3z"/>
<path d="M1269 2977 c6 -8 7 -18 3 -22 -4 -5 -1 -5 6 -1 10 6 10 11 1 22 -6 8
-14 14 -16 14 -3 0 0 -6 6 -13z"/>
<path d="M2228 2983 c7 -3 16 -2 19 1 4 3 -2 6 -13 5 -11 0 -14 -3 -6 -6z"/>
<path d="M2708 2983 c7 -3 16 -2 19 1 4 3 -2 6 -13 5 -11 0 -14 -3 -6 -6z"/>
<path d="M3906 2978 c3 -5 10 -6 15 -3 13 9 11 12 -6 12 -8 0 -12 -4 -9 -9z"/>
<path d="M4630 2971 c0 -10 30 -24 37 -17 3 2 -5 9 -16 16 -12 6 -21 7 -21 1z"/>
<path d="M4702 2964 c10 -10 20 -16 22 -13 3 3 -5 11 -17 18 -21 13 -21 12 -5
-5z"/>
<path d="M4630 2940 c0 -6 7 -10 15 -10 8 0 15 2 15 4 0 2 -7 6 -15 10 -8 3
-15 1 -15 -4z"/>
<path d="M4630 2883 c8 -3 22 -11 30 -17 13 -10 13 -9 1 7 -7 9 -21 17 -30 16
-13 0 -14 -1 -1 -6z"/>
<path d="M4302 2868 c-14 -14 -16 -38 -2 -38 5 0 7 7 3 15 -3 10 -1 15 7 13 7
-2 15 3 17 10 6 15 -9 16 -25 0z"/>
<path d="M4590 2871 c0 -7 -5 -9 -12 -5 -7 5 -8 3 -3 -5 5 -9 10 -10 18 -2 6
6 8 14 4 18 -4 3 -7 1 -7 -6z"/>
<path d="M4174 2862 c3 -5 1 -12 -6 -14 -6 -2 -12 -12 -14 -22 -1 -10 0 -16 3
-13 2 3 5 9 5 14 1 4 8 13 16 19 12 9 12 13 2 19 -8 5 -11 4 -6 -3z"/>
<path d="M4440 2833 c-14 -15 -17 -21 -8 -14 9 7 21 10 25 8 5 -3 10 3 10 14
2 23 4 24 -27 -8z"/>
<path d="M4221 2833 c0 -11 3 -13 6 -5 2 6 10 9 15 6 7 -4 8 -2 4 4 -11 18
-26 14 -25 -5z"/>
<path d="M4330 2842 c0 -5 7 -9 15 -9 8 0 12 4 9 9 -3 4 -9 8 -15 8 -5 0 -9
-4 -9 -8z"/>
<path d="M3996 2827 c3 -10 9 -15 12 -12 3 3 0 11 -7 18 -10 9 -11 8 -5 -6z"/>
<path d="M4115 2831 c-3 -5 -2 -12 3 -15 5 -3 9 1 9 9 0 17 -3 19 -12 6z"/>
<path d="M4189 2823 c-13 -16 -12 -17 4 -4 16 13 21 21 13 21 -2 0 -10 -8 -17
-17z"/>
<path d="M4260 2820 c-9 -6 -10 -10 -3 -10 6 0 15 5 18 10 8 12 4 12 -15 0z"/>
<path d="M4500 2826 c0 -2 8 -10 18 -17 15 -13 16 -12 3 4 -13 16 -21 21 -21
13z"/>
<path d="M1675 2811 c-3 -5 -2 -12 3 -15 5 -3 9 1 9 9 0 17 -3 19 -12 6z"/>
<path d="M4376 2807 c3 -10 9 -15 12 -12 3 3 0 11 -7 18 -10 9 -11 8 -5 -6z"/>
<path d="M1730 2780 c0 -5 5 -10 11 -10 5 0 7 5 4 10 -3 6 -8 10 -11 10 -2 0
-4 -4 -4 -10z"/>
<path d="M1876 2781 c-3 -4 4 -17 17 -27 22 -19 22 -19 4 2 -9 11 -14 24 -10
27 3 4 4 7 0 7 -3 0 -8 -4 -11 -9z"/>
<path d="M1795 2771 c-3 -5 -2 -12 3 -15 5 -3 9 1 9 9 0 17 -3 19 -12 6z"/>
<path d="M2035 2770 c-8 -13 3 -30 18 -30 7 0 6 4 -3 10 -13 9 -13 11 0 20 9
6 10 10 3 10 -6 0 -15 -4 -18 -10z"/>
<path d="M2315 2769 c-4 -6 -5 -12 -2 -15 2 -3 7 2 10 11 7 17 1 20 -8 4z"/>
<path d="M2435 2771 c-3 -5 -2 -12 3 -15 5 -3 9 1 9 9 0 17 -3 19 -12 6z"/>
<path d="M2675 2769 c-4 -6 -5 -12 -2 -15 2 -3 7 2 10 11 7 17 1 20 -8 4z"/>
<path d="M2787 2760 c-8 -11 -17 -17 -22 -12 -5 4 -5 1 0 -7 7 -12 10 -11 20
2 7 9 14 15 17 12 2 -3 5 2 5 10 0 20 -3 19 -20 -5z"/>
<path d="M1550 2766 c0 -2 7 -7 16 -10 8 -3 12 -2 9 4 -6 10 -25 14 -25 6z"/>
<path d="M1950 2761 c0 -6 4 -13 10 -16 6 -3 7 1 4 9 -7 18 -14 21 -14 7z"/>
<path d="M2079 2753 c-13 -17 -13 -17 6 -3 11 8 22 16 24 17 2 2 0 3 -6 3 -6
0 -17 -8 -24 -17z"/>
<path d="M2270 2752 c6 -12 15 -20 21 -17 5 4 9 -3 9 -14 0 -12 -5 -20 -11
-18 -6 1 -14 -5 -16 -13 -4 -12 -3 -12 5 -2 5 8 13 13 18 13 5 -1 9 8 9 19 0
11 -3 19 -7 18 -4 -2 -14 6 -23 17 -16 19 -16 19 -5 -3z"/>
<path d="M2370 2756 c14 -18 13 -19 -2 -13 -10 3 -18 2 -18 -3 0 -12 27 -13
34 -1 3 5 -2 15 -12 22 -16 13 -16 13 -2 -5z"/>
<path d="M2402 2757 c10 -8 14 -18 10 -22 -4 -5 -1 -5 6 -1 17 10 15 14 -10
26 -21 10 -21 10 -6 -3z"/>
<path d="M2481 2754 c0 -11 3 -14 6 -6 3 7 2 16 -1 19 -3 4 -6 -2 -5 -13z"/>
<path d="M2511 2754 c0 -11 3 -14 6 -6 3 7 2 16 -1 19 -3 4 -6 -2 -5 -13z"/>
<path d="M2580 2758 c0 -4 4 -8 9 -8 6 0 12 4 15 8 3 5 -1 9 -9 9 -8 0 -15 -4
-15 -9z"/>
<path d="M2620 2755 c-10 -12 -9 -16 3 -21 9 -3 21 -3 27 1 14 9 9 -26 -5 -38
-6 -5 -4 -7 5 -4 8 2 15 14 15 28 0 20 -4 23 -25 21 -21 -4 -22 -2 -11 12 7 9
11 16 8 16 -2 0 -10 -7 -17 -15z"/>
<path d="M2695 2759 c-9 -13 0 -22 25 -26 26 -4 33 12 12 28 -15 13 -16 12 -4
-3 12 -15 11 -17 -7 -15 -13 1 -20 6 -17 14 6 16 0 17 -9 2z"/>
<path d="M2959 2753 c-13 -17 -13 -17 6 -3 11 8 22 16 24 17 2 2 0 3 -6 3 -6
0 -17 -8 -24 -17z"/>
<path d="M2104 2744 c-18 -14 -18 -15 4 -4 12 6 22 13 22 15 0 8 -5 6 -26 -11z"/>
<path d="M1871 2733 c7 -12 15 -20 18 -17 3 2 -3 12 -13 22 -17 16 -18 16 -5
-5z"/>
<path d="M1990 2730 c6 -11 16 -20 23 -19 9 0 9 2 -1 6 -6 2 -10 8 -7 13 3 4
-2 11 -10 14 -13 4 -14 2 -5 -14z"/>
<path d="M2133 2737 c-3 -6 -1 -7 5 -3 5 3 12 1 14 -6 3 -8 6 -7 10 3 7 17
-19 22 -29 6z"/>
<path d="M2188 2743 c6 -2 18 -2 25 0 6 3 1 5 -13 5 -14 0 -19 -2 -12 -5z"/>
<path d="M2458 2743 c0 -5 -2 -12 -3 -18 -2 -5 -4 -14 -5 -20 -1 -5 -6 -1 -11
10 -8 18 -9 19 -6 1 1 -12 11 -20 27 -23 19 -2 22 -1 10 7 -8 5 -13 10 -10 11
34 6 43 8 48 14 4 3 -6 4 -22 1 -21 -4 -26 -2 -22 10 3 7 3 14 1 14 -3 0 -6
-3 -7 -7z"/>
<path d="M2553 2730 c1 -11 5 -20 9 -20 3 0 6 9 5 20 -1 11 -5 20 -9 20 -3 0
-6 -9 -5 -20z"/>
<path d="M2813 2733 c-8 -20 5 -45 19 -37 8 5 9 2 5 -9 -3 -10 -2 -17 4 -17 6
0 9 8 7 18 -2 9 -10 16 -16 15 -7 -2 -12 6 -12 16 0 14 5 18 19 14 10 -3 21
-1 24 4 3 4 -6 8 -20 8 -14 0 -28 -6 -30 -12z"/>
<path d="M2899 2743 c-1 -5 -1 -12 0 -17 1 -5 -4 -6 -12 -3 -8 3 -20 1 -28 -4
-10 -6 -5 -8 14 -6 15 1 27 7 27 12 -1 6 9 13 22 17 l23 6 -22 1 c-13 1 -24
-2 -24 -6z"/>
<path d="M2979 2743 c-1 -4 -1 -10 -1 -14 0 -3 -9 -11 -20 -18 -18 -11 -20
-11 -15 3 4 9 2 16 -3 16 -11 0 -14 -23 -4 -33 9 -9 55 24 48 34 -3 5 4 9 15
9 12 0 20 -6 19 -12 -2 -8 7 -13 22 -13 15 0 24 5 23 13 -2 6 7 12 19 12 20 0
20 -1 5 -18 -10 -10 -17 -23 -17 -28 0 -4 7 1 15 13 9 13 22 20 30 17 8 -4 15
-1 15 5 0 6 -3 10 -7 9 -5 0 -16 2 -25 6 -22 10 -52 0 -43 -14 3 -5 -3 -10
-14 -10 -12 0 -20 6 -18 12 1 7 -8 14 -20 16 -13 2 -24 0 -24 -5z"/>
<path d="M2334 2715 c1 -11 7 -19 15 -17 10 2 12 -5 7 -25 -5 -23 -4 -25 5
-10 12 20 5 52 -10 42 -5 -3 -11 3 -14 12 -3 14 -4 13 -3 -2z"/>
<path d="M2050 2719 c0 -5 5 -7 10 -4 6 3 10 8 10 11 0 2 -4 4 -10 4 -5 0 -10
-5 -10 -11z"/>
<path d="M2105 2719 c-4 -6 -4 -13 -1 -16 3 -4 6 -1 6 6 0 7 5 9 12 5 7 -4 8
-3 4 4 -9 15 -13 15 -21 1z"/>
<path d="M2177 2713 c5 -12 3 -14 -7 -8 -9 5 -11 4 -6 -4 4 -6 12 -9 17 -6 12
8 12 35 -1 35 -5 0 -6 -7 -3 -17z"/>
<path d="M2210 2716 c0 -20 17 -29 26 -15 5 8 3 9 -6 4 -10 -6 -12 -4 -7 8 3
10 2 17 -3 17 -6 0 -10 -6 -10 -14z"/>
<path d="M2250 2720 c0 -5 5 -10 10 -10 6 0 10 5 10 10 0 6 -4 10 -10 10 -5 0
-10 -4 -10 -10z"/>
<path d="M2380 2719 c-12 -9 -12 -10 3 -5 15 5 17 2 12 -17 -5 -20 -5 -20 6
-4 14 23 0 40 -21 26z"/>
<path d="M2588 2723 c7 -3 16 -2 19 1 4 3 -2 6 -13 5 -11 0 -14 -3 -6 -6z"/>
<path d="M2681 2714 c0 -11 3 -14 6 -6 3 7 2 16 -1 19 -3 4 -6 -2 -5 -13z"/>
<path d="M2750 2720 c0 -6 7 -10 15 -10 8 0 15 2 15 4 0 2 -7 6 -15 10 -8 3
-15 1 -15 -4z"/>
<path d="M2710 2710 c0 -5 7 -10 16 -10 8 0 13 -4 9 -9 -3 -5 -1 -12 4 -15 5
-4 8 1 7 10 -3 19 -36 41 -36 24z"/>
<path d="M3135 2709 c-4 -6 -13 -8 -21 -5 -7 3 -18 -4 -24 -14 -7 -14 -7 -20
0 -20 5 0 10 7 10 15 0 19 27 8 32 -13 3 -10 16 -18 29 -19 18 -2 20 0 9 7 -8
5 -17 7 -21 4 -12 -7 -17 34 -6 45 6 6 8 11 5 11 -4 0 -10 -5 -13 -11z"/>
<path d="M1775 2700 c-3 -5 -1 -10 4 -10 6 0 11 5 11 10 0 6 -2 10 -4 10 -3 0
-8 -4 -11 -10z"/>
<path d="M1987 2699 c7 -7 15 -10 18 -7 3 3 -2 9 -12 12 -14 6 -15 5 -6 -5z"/>
<path d="M2073 2695 c0 -8 4 -12 9 -9 4 3 8 9 8 15 0 5 -4 9 -8 9 -5 0 -9 -7
-9 -15z"/>
<path d="M2135 2699 c-4 -6 -5 -12 -2 -15 2 -3 7 2 10 11 7 17 1 20 -8 4z"/>
<path d="M2496 2702 c-3 -4 0 -14 6 -22 8 -12 9 -12 4 3 -8 26 27 18 36 -8 6
-17 7 -17 5 4 -1 16 -9 25 -24 27 -12 2 -24 0 -27 -4z"/>
<path d="M2569 2685 c-9 -17 -8 -18 3 -5 20 23 49 25 42 3 -5 -15 -4 -15 4 -3
6 8 9 17 6 21 -9 15 -46 4 -55 -16z"/>
<path d="M2794 2697 c5 -15 2 -17 -17 -12 -20 5 -20 5 -4 -6 23 -14 40 0 26
21 -9 12 -10 12 -5 -3z"/>
<path d="M2910 2702 c0 -11 27 -42 37 -42 3 0 -2 10 -13 23 -10 12 -20 24 -21
26 -2 2 -3 -1 -3 -7z"/>
<path d="M2990 2700 c0 -5 5 -10 10 -10 6 0 10 5 10 10 0 6 -4 10 -10 10 -5 0
-10 -4 -10 -10z"/>
<path d="M1935 2689 c-4 -6 -5 -12 -2 -15 2 -3 7 2 10 11 7 17 1 20 -8 4z"/>
<path d="M2050 2689 c0 -5 -4 -8 -9 -5 -5 3 -15 -2 -22 -12 -12 -15 -12 -15 1
-5 8 6 19 11 25 11 5 0 11 5 13 11 2 6 1 11 -2 11 -3 0 -6 -5 -6 -11z"/>
<path d="M2870 2690 c0 -6 7 -10 15 -10 8 0 15 2 15 4 0 2 -7 6 -15 10 -8 3
-15 1 -15 -4z"/>
<path d="M1956 2673 c-6 -14 -5 -15 5 -6 7 7 10 15 7 18 -3 3 -9 -2 -12 -12z"/>
<path d="M2100 2680 c-9 -6 -10 -10 -3 -10 6 0 15 5 18 10 8 12 4 12 -15 0z"/>
<path d="M2150 2685 c0 -5 5 -17 10 -25 5 -8 10 -10 10 -5 0 6 -5 17 -10 25
-5 8 -10 11 -10 5z"/>
<path d="M2195 2680 c3 -5 8 -10 11 -10 2 0 4 5 4 10 0 6 -5 10 -11 10 -5 0
-7 -4 -4 -10z"/>
<path d="M2305 2680 c-3 -5 -2 -10 4 -10 5 0 13 5 16 10 3 6 2 10 -4 10 -5 0
-13 -4 -16 -10z"/>
<path d="M2420 2680 c8 -5 20 -10 25 -10 6 0 3 5 -5 10 -8 5 -19 10 -25 10 -5
0 -3 -5 5 -10z"/>
<path d="M2690 2680 c0 -5 5 -10 10 -10 6 0 10 5 10 10 0 6 -4 10 -10 10 -5 0
-10 -4 -10 -10z"/>
<path d="M2966 2675 c4 -8 8 -15 10 -15 2 0 4 7 4 15 0 8 -4 15 -10 15 -5 0
-7 -7 -4 -15z"/>
<path d="M3028 2683 c6 -2 18 -2 25 0 6 3 1 5 -13 5 -14 0 -19 -2 -12 -5z"/>
<path d="M2238 2673 c7 -3 16 -2 19 1 4 3 -2 6 -13 5 -11 0 -14 -3 -6 -6z"/>
<path d="M2472 2671 c-11 -6 -9 -9 6 -13 15 -4 19 -2 15 8 -6 16 -4 16 -21 5z"/>
<path d="M1895 2660 c3 -5 8 -10 11 -10 2 0 4 5 4 10 0 6 -5 10 -11 10 -5 0
-7 -4 -4 -10z"/>
<path d="M2127 2659 c7 -7 15 -10 18 -7 3 3 -2 9 -12 12 -14 6 -15 5 -6 -5z"/>
<path d="M2375 2660 c-3 -6 2 -13 11 -17 10 -4 19 -2 22 5 2 7 9 9 14 6 7 -5
8 -2 3 5 -5 9 -10 10 -18 2 -14 -14 -30 -14 -22 -1 3 6 4 10 1 10 -3 0 -8 -5
-11 -10z"/>
<path d="M2596 2658 c5 -7 2 -9 -9 -5 -11 4 -14 2 -10 -9 4 -11 9 -12 19 -3
12 10 11 29 -2 29 -3 0 -2 -5 2 -12z"/>
<path d="M2719 2668 c-5 -18 -6 -38 -1 -34 7 8 12 36 6 36 -2 0 -4 -1 -5 -2z"/>
<path d="M3113 2653 c0 -11 7 -20 14 -20 10 0 10 4 1 16 -7 9 -13 18 -15 20
-1 2 -1 -5 0 -16z"/>
<path d="M2228 2653 c7 -3 16 -2 19 1 4 3 -2 6 -13 5 -11 0 -14 -3 -6 -6z"/>
<path d="M2741 2644 c0 -11 3 -14 6 -6 3 7 2 16 -1 19 -3 4 -6 -2 -5 -13z"/>
<path d="M2261 2636 c-9 -11 -9 -16 0 -22 7 -4 9 -3 5 4 -3 6 2 15 11 21 10 6
13 11 7 11 -6 0 -17 -6 -23 -14z"/>
<path d="M2453 2635 c0 -8 4 -12 9 -9 4 3 8 9 8 15 0 5 -4 9 -8 9 -5 0 -9 -7
-9 -15z"/>
<path d="M2510 2645 c0 -7 30 -13 34 -7 3 4 -4 9 -15 9 -10 1 -19 0 -19 -2z"/>
<path d="M3010 2639 c0 -5 5 -7 10 -4 6 3 10 8 10 11 0 2 -4 4 -10 4 -5 0 -10
-5 -10 -11z"/>
<path d="M3046 2638 c3 -5 9 -7 12 -4 3 3 12 0 21 -6 13 -10 14 -10 4 2 -15
16 -46 23 -37 8z"/>
<path d="M2295 2631 c-3 -5 -2 -12 3 -15 5 -3 9 1 9 9 0 17 -3 19 -12 6z"/>
<path d="M2933 2625 c0 -8 4 -12 9 -9 5 3 6 10 3 15 -9 13 -12 11 -12 -6z"/>
<path d="M2130 2619 c0 -5 5 -7 10 -4 6 3 10 8 10 11 0 2 -4 4 -10 4 -5 0 -10
-5 -10 -11z"/>
<path d="M2650 2619 c0 -5 5 -7 10 -4 6 3 10 8 10 11 0 2 -4 4 -10 4 -5 0 -10
-5 -10 -11z"/>
<path d="M2187 2599 c7 -7 15 -10 18 -7 3 3 -2 9 -12 12 -14 6 -15 5 -6 -5z"/>
<path d="M3176 2578 c3 -5 10 -6 15 -3 13 9 11 12 -6 12 -8 0 -12 -4 -9 -9z"/>
<path d="M3315 2421 c-3 -5 -2 -12 3 -15 5 -3 9 1 9 9 0 17 -3 19 -12 6z"/>
<path d="M3410 2300 c0 -5 5 -10 11 -10 5 0 7 5 4 10 -3 6 -8 10 -11 10 -2 0
-4 -4 -4 -10z"/>
<path d="M3399 2253 c-13 -17 -13 -17 6 -3 11 8 22 16 24 17 2 2 0 3 -6 3 -6
0 -17 -8 -24 -17z"/>
<path d="M3455 2220 c3 -5 8 -10 11 -10 2 0 4 5 4 10 0 6 -5 10 -11 10 -5 0
-7 -4 -4 -10z"/>
<path d="M4375 2199 c-4 -6 -5 -12 -2 -15 2 -3 7 2 10 11 7 17 1 20 -8 4z"/>
<path d="M3535 2131 c-3 -5 -2 -12 3 -15 5 -3 9 1 9 9 0 17 -3 19 -12 6z"/>
<path d="M4385 2120 c-3 -6 1 -7 9 -4 18 7 21 14 7 14 -6 0 -13 -4 -16 -10z"/>
<path d="M3547 2079 c7 -7 15 -10 18 -7 3 3 -2 9 -12 12 -14 6 -15 5 -6 -5z"/>
<path d="M4460 2060 c-9 -6 -10 -10 -3 -10 6 0 15 5 18 10 8 12 4 12 -15 0z"/>
<path d="M4405 2047 c-14 -11 -15 -16 -5 -22 9 -6 11 -4 5 5 -6 9 -4 12 7 8 9
-4 15 0 15 8 0 17 1 17 -22 1z"/>
<path d="M3456 2018 c3 -5 10 -6 15 -3 13 9 11 12 -6 12 -8 0 -12 -4 -9 -9z"/>
<path d="M3515 2019 c-3 -4 2 -6 10 -5 21 3 28 13 10 13 -9 0 -18 -4 -20 -8z"/>
<path d="M3445 1960 c-3 -5 -1 -10 5 -10 6 0 8 -5 4 -12 -4 -7 -3 -8 4 -4 6 4
9 13 5 21 -6 18 -10 19 -18 5z"/>
<path d="M3515 1930 c10 -11 20 -20 23 -20 3 0 -3 9 -13 20 -10 11 -20 20 -23
20 -3 0 3 -9 13 -20z"/>
<path d="M4416 1925 c-3 -8 -1 -15 4 -15 6 0 10 7 10 15 0 8 -2 15 -4 15 -2 0
-6 -7 -10 -15z"/>
<path d="M3433 1918 c3 -9 -1 -26 -10 -39 l-15 -24 21 24 c24 27 26 37 9 47
-7 5 -9 2 -5 -8z"/>
<path d="M3470 1915 c0 -8 2 -15 4 -15 2 0 6 7 10 15 3 8 1 15 -4 15 -6 0 -10
-7 -10 -15z"/>
<path d="M4367 1916 c-4 -10 -1 -13 7 -10 8 3 17 1 21 -5 3 -6 10 -11 16 -11
5 0 0 9 -11 20 -24 24 -26 24 -33 6z"/>
<path d="M4473 1885 c0 -8 4 -12 9 -9 5 3 6 10 3 15 -9 13 -12 11 -12 -6z"/>
<path d="M4384 1875 c8 -8 20 -15 27 -15 7 0 4 6 -7 15 -25 19 -40 19 -20 0z"/>
<path d="M4360 1860 c-13 -8 -12 -10 3 -10 10 0 16 -4 12 -9 -3 -6 4 -15 15
-21 13 -7 20 -7 20 0 0 5 -7 10 -16 10 -8 0 -13 4 -10 8 9 15 -9 31 -24 22z"/>
<path d="M3473 1834 c0 -17 2 -22 7 -13 5 6 6 18 3 26 -8 19 -10 16 -10 -13z"/>
<path d="M4415 1840 c3 -5 8 -10 11 -10 2 0 4 5 4 10 0 6 -5 10 -11 10 -5 0
-7 -4 -4 -10z"/>
<path d="M4346 1804 c-20 -19 -20 -25 -1 -18 8 4 15 11 15 18 0 6 5 4 10 -4 5
-8 10 -11 10 -6 0 6 6 2 13 -9 11 -14 16 -15 22 -5 5 9 4 11 -3 6 -7 -4 -12
-3 -12 3 0 6 -9 15 -19 21 -15 7 -23 6 -35 -6z"/>
<path d="M3452 1796 c7 -8 15 -12 17 -11 5 6 -10 25 -20 25 -5 0 -4 -6 3 -14z"/>
<path d="M4436 1793 c-6 -14 -5 -15 5 -6 7 7 10 15 7 18 -3 3 -9 -2 -12 -12z"/>
<path d="M3510 1780 c0 -5 5 -10 11 -10 5 0 7 5 4 10 -3 6 -8 10 -11 10 -2 0
-4 -4 -4 -10z"/>
<path d="M4363 1774 c9 -3 15 -10 12 -15 -4 -5 -1 -9 5 -9 19 0 5 25 -16 27
-16 2 -16 1 -1 -3z"/>
<path d="M4440 1760 c8 -5 20 -10 25 -10 6 0 3 5 -5 10 -8 5 -19 10 -25 10 -5
0 -3 -5 5 -10z"/>
<path d="M4416 1747 c3 -10 9 -15 12 -12 3 3 0 11 -7 18 -10 9 -11 8 -5 -6z"/>
<path d="M4390 1731 c0 -6 4 -12 8 -15 5 -3 9 1 9 9 0 8 -4 15 -9 15 -4 0 -8
-4 -8 -9z"/>
<path d="M3430 1710 c0 -6 7 -10 15 -10 8 0 15 2 15 4 0 2 -7 6 -15 10 -8 3
-15 1 -15 -4z"/>
<path d="M4416 1693 c-6 -14 -5 -15 5 -6 7 7 10 15 7 18 -3 3 -9 -2 -12 -12z"/>
<path d="M3385 1691 c-3 -6 -3 -16 0 -22 4 -6 1 -9 -7 -7 -7 2 -13 0 -13 -3 0
-3 -6 -13 -14 -23 -8 -9 -11 -19 -8 -23 4 -3 1 -13 -5 -22 -8 -10 -4 -9 10 3
12 11 22 14 22 8 0 -6 8 -16 18 -21 14 -7 19 -6 19 4 0 7 -7 11 -16 8 -13 -4
-13 -2 2 10 19 16 24 35 5 20 -17 -14 -49 -12 -45 1 2 6 12 11 23 11 10 0 18
6 16 13 -2 10 4 11 19 7 15 -5 19 -4 15 4 -4 6 -14 11 -22 11 -8 0 -14 5 -14
10 0 13 6 13 30 0 10 -6 21 -6 24 -2 3 5 0 9 -7 9 -7 0 -19 4 -28 7 -10 4 -20
3 -24 -3z m0 -49 c-3 -3 -11 0 -18 7 -9 10 -8 11 6 5 10 -3 15 -9 12 -12z"/>
<path d="M4410 1660 c0 -5 5 -10 11 -10 5 0 7 5 4 10 -3 6 -8 10 -11 10 -2 0
-4 -4 -4 -10z"/>
<path d="M3456 1633 c-6 -14 -5 -15 5 -6 7 7 10 15 7 18 -3 3 -9 -2 -12 -12z"/>
<path d="M4340 1639 c0 -5 5 -7 10 -4 6 3 10 8 10 11 0 2 -4 4 -10 4 -5 0 -10
-5 -10 -11z"/>
<path d="M4375 1640 c3 -5 8 -10 11 -10 2 0 4 5 4 10 0 6 -5 10 -11 10 -5 0
-7 -4 -4 -10z"/>
<path d="M4350 1620 c-11 -7 -11 -10 -2 -10 8 0 10 -5 6 -12 -4 -7 -4 -10 1
-6 4 4 13 4 19 -2 8 -6 12 -3 12 9 0 12 -5 17 -15 13 -9 -3 -12 -1 -7 6 9 14
6 15 -14 2z"/>
<path d="M3421 1594 c0 -11 3 -14 6 -6 3 7 2 16 -1 19 -3 4 -6 -2 -5 -13z"/>
<path d="M3390 1540 c0 -5 5 -10 10 -10 6 0 10 5 10 10 0 6 -4 10 -10 10 -5 0
-10 -4 -10 -10z"/>
<path d="M4264 1522 c4 -7 3 -12 -2 -12 -5 0 -9 -6 -9 -12 0 -7 12 -13 27 -13
17 0 26 5 23 12 -3 6 -12 9 -20 6 -10 -4 -14 -2 -9 5 3 6 1 14 -5 18 -8 4 -9
3 -5 -4z"/>
<path d="M4350 1526 c0 -2 7 -7 16 -10 8 -3 12 -2 9 4 -6 10 -25 14 -25 6z"/>
<path d="M4310 1510 c0 -5 5 -10 10 -10 6 0 10 5 10 10 0 6 -4 10 -10 10 -5 0
-10 -4 -10 -10z"/>
<path d="M3390 1485 c0 -7 30 -13 34 -7 3 4 -4 9 -15 9 -10 1 -19 0 -19 -2z"/>
<path d="M3377 1463 c-3 -5 0 -17 4 -28 9 -19 9 -19 5 2 -2 12 1 24 8 27 8 3
8 5 -1 5 -6 1 -14 -2 -16 -6z"/>
<path d="M4308 1463 c6 -2 18 -2 25 0 6 3 1 5 -13 5 -14 0 -19 -2 -12 -5z"/>
<path d="M3354 1429 c-3 -6 -2 -15 3 -20 5 -5 9 -1 9 11 0 23 -2 24 -12 9z"/>
<path d="M3435 1420 c3 -5 8 -10 11 -10 2 0 4 5 4 10 0 6 -5 10 -11 10 -5 0
-7 -4 -4 -10z"/>
<path d="M3376 1393 c-6 -14 -5 -15 5 -6 7 7 10 15 7 18 -3 3 -9 -2 -12 -12z"/>
<path d="M4308 1403 c7 -3 16 -2 19 1 4 3 -2 6 -13 5 -11 0 -14 -3 -6 -6z"/>
<path d="M3348 1373 c6 -2 10 -8 8 -12 -3 -4 1 -8 9 -8 11 0 12 4 4 14 -6 7
-17 13 -23 12 -7 0 -6 -2 2 -6z"/>
<path d="M4280 1355 c-19 -22 -8 -25 13 -3 9 10 13 18 8 18 -5 0 -14 -7 -21
-15z"/>
<path d="M4308 1343 c7 -3 16 -2 19 1 4 3 -2 6 -13 5 -11 0 -14 -3 -6 -6z"/>
<path d="M4310 1320 c0 -5 5 -10 11 -10 5 0 7 5 4 10 -3 6 -8 10 -11 10 -2 0
-4 -4 -4 -10z"/>
<path d="M4275 1261 c-3 -5 -2 -12 3 -15 5 -3 9 1 9 9 0 17 -3 19 -12 6z"/>
<path d="M4196 1189 c-8 -12 -12 -28 -9 -36 4 -11 8 -12 13 -2 5 7 5 19 2 28
-5 14 -3 14 11 2 11 -9 17 -10 17 -2 0 6 -6 11 -12 11 -9 0 -8 4 2 10 9 6 10
10 3 10 -6 0 -19 -10 -27 -21z"/>
<path d="M4246 1165 c-11 -8 -15 -15 -9 -15 6 0 16 7 23 15 16 19 11 19 -14 0z"/>
<path d="M4233 1125 c0 -8 4 -12 9 -9 5 3 6 10 3 15 -9 13 -12 11 -12 -6z"/>
<path d="M4170 1120 c0 -5 5 -10 10 -10 6 0 10 5 10 10 0 6 -4 10 -10 10 -5 0
-10 -4 -10 -10z"/>
<path d="M4140 1101 c0 -5 7 -11 15 -15 8 -3 15 -1 15 3 0 5 -7 11 -15 15 -8
3 -15 1 -15 -3z"/>
<path d="M4135 1061 c-3 -5 0 -13 6 -17 7 -4 9 -3 5 4 -3 5 0 13 6 15 9 4 10
6 1 6 -6 1 -14 -3 -18 -8z"/>
<path d="M4095 999 c-4 -6 -4 -13 -1 -16 3 -4 6 -1 6 7 0 10 4 10 18 -1 15
-13 16 -12 3 4 -16 20 -18 20 -26 6z"/>
<path d="M2740 966 c0 -2 8 -10 18 -17 15 -13 16 -12 3 4 -13 16 -21 21 -21
13z"/>
<path d="M4022 947 c-8 -9 -8 -17 0 -27 8 -13 9 -12 5 1 -3 9 0 22 6 28 6 6 8
11 5 11 -3 0 -10 -6 -16 -13z"/>
<path d="M2778 929 c-4 -11 1 -15 17 -15 13 0 21 4 19 8 -3 5 -9 6 -14 3 -4
-3 -10 0 -12 7 -3 8 -6 7 -10 -3z"/>
<path d="M3990 931 c0 -6 4 -13 10 -16 6 -3 7 1 4 9 -7 18 -14 21 -14 7z"/>
<path d="M2830 900 c0 -5 5 -10 10 -10 6 0 10 5 10 10 0 6 -4 10 -10 10 -5 0
-10 -4 -10 -10z"/>
<path d="M3975 899 c-4 -6 -5 -12 -2 -15 2 -3 7 2 10 11 7 17 1 20 -8 4z"/>
<path d="M2873 893 c-7 -2 -13 -10 -13 -16 0 -8 4 -7 12 1 15 15 32 16 23 2
-3 -5 -1 -10 5 -10 13 0 8 23 -6 26 -5 1 -15 0 -21 -3z"/>
<path d="M2833 867 c0 -8 6 -14 14 -14 9 0 10 4 2 14 -6 7 -12 13 -14 13 -1 0
-2 -6 -2 -13z"/>
<path d="M2870 845 c-11 -13 -10 -14 4 -9 9 3 16 10 16 15 0 13 -6 11 -20 -6z"/>
<path d="M2911 844 c0 -11 3 -14 6 -6 3 7 2 16 -1 19 -3 4 -6 -2 -5 -13z"/>
<path d="M3850 842 c0 -5 7 -9 15 -9 8 0 12 4 9 9 -3 4 -9 8 -15 8 -5 0 -9 -4
-9 -8z"/>
<path d="M3936 838 c3 -5 10 -6 15 -3 13 9 11 12 -6 12 -8 0 -12 -4 -9 -9z"/>
<path d="M2937 809 c4 -13 8 -18 11 -10 2 7 -1 18 -6 23 -8 8 -9 4 -5 -13z"/>
<path d="M2990 810 c-8 -5 -10 -10 -5 -10 6 0 17 5 25 10 8 5 11 10 5 10 -5 0
-17 -5 -25 -10z"/>
<path d="M3734 804 c-18 -14 -18 -15 4 -4 12 6 22 13 22 15 0 8 -5 6 -26 -11z"/>
<path d="M3695 800 c3 -5 8 -10 11 -10 2 0 4 5 4 10 0 6 -5 10 -11 10 -5 0 -7
-4 -4 -10z"/>
<path d="M3799 808 c-6 -20 -6 -39 0 -42 4 -3 7 6 7 20 0 20 -4 32 -7 22z"/>
<path d="M3270 790 c-8 -5 -12 -11 -9 -14 2 -3 11 -1 19 4 8 5 12 11 9 14 -2
3 -11 1 -19 -4z"/>
<path d="M2987 779 c7 -7 15 -10 18 -7 3 3 -2 9 -12 12 -14 6 -15 5 -6 -5z"/>
<path d="M3835 780 c3 -5 8 -10 11 -10 2 0 4 5 4 10 0 6 -5 10 -11 10 -5 0 -7
-4 -4 -10z"/>
<path d="M3068 773 c7 -3 16 -2 19 1 4 3 -2 6 -13 5 -11 0 -14 -3 -6 -6z"/>
<path d="M3241 764 c0 -11 3 -14 6 -6 3 7 2 16 -1 19 -3 4 -6 -2 -5 -13z"/>
<path d="M3507 767 c-3 -8 1 -14 8 -14 7 0 11 6 8 14 -3 7 -6 13 -8 13 -2 0
-5 -6 -8 -13z"/>
<path d="M3685 773 c-31 -7 -40 -21 -11 -16 15 3 29 9 32 14 3 5 4 8 2 8 -2
-1 -12 -3 -23 -6z"/>
<path d="M3160 766 c0 -2 7 -7 16 -10 8 -3 12 -2 9 4 -6 10 -25 14 -25 6z"/>
<path d="M3388 752 c9 -10 19 -17 21 -16 6 5 -20 34 -30 34 -5 0 -1 -8 9 -18z"/>
<path d="M3450 760 c-8 -5 -10 -10 -5 -10 6 0 17 5 25 10 8 5 11 10 5 10 -5 0
-17 -5 -25 -10z"/>
<path d="M3555 760 c3 -5 8 -10 11 -10 2 0 4 5 4 10 0 6 -5 10 -11 10 -5 0 -7
-4 -4 -10z"/>
<path d="M3310 743 c5 -2 8 -9 5 -13 -3 -5 -1 -11 4 -14 5 -4 8 2 7 11 -2 9
-8 18 -15 19 -6 1 -7 0 -1 -3z"/>
<path d="M3373 743 c4 -3 -1 -16 -10 -27 -18 -21 -18 -21 4 -2 20 16 23 36 6
36 -4 0 -3 -3 0 -7z"/>
<path d="M3474 735 c3 -23 12 -26 13 -5 1 11 -2 20 -7 20 -4 0 -7 -7 -6 -15z"/>
<path d="M3229 703 c-13 -16 -12 -17 4 -4 16 13 21 21 13 21 -2 0 -10 -8 -17
-17z"/>
<path d="M3535 701 c-3 -5 -2 -12 3 -15 5 -3 9 1 9 9 0 17 -3 19 -12 6z"/>
</g>
</svg>
